<svg xmlns="http://www.w3.org/2000/svg" viewBox="0 0 506.86 158.18"><defs><style>.cls-1{fill:#1f448d;}.cls-2{fill:#7aba47;}.cls-3{fill:#7bba47;}.cls-4{fill:#717174;}.cls-5{fill:#727275;}.cls-6{fill:#737376;}.cls-7{fill:#757477;}.cls-8{fill:#747477;}.cls-9{fill:#757578;}.cls-10{fill:#78787b;}.cls-11{fill:#818082;}.cls-12{fill:#777577;}.cls-13{fill:#7d7d80;}.cls-14{fill:#bed895;}.cls-15{fill:#b7d8ef;}.cls-16{fill:#adbada;}.cls-17{fill:#fafbfc;}.cls-18{fill:#cee1ac;}</style></defs><g id="Layer_2" data-name="Layer 2"><g id="Layer_1-2" data-name="Layer 1"><path class="cls-1" d="M18,35.32l.12-.13L18.07,35a2.41,2.41,0,0,0,.44-1.94.39.39,0,0,0,.08-.49,3.22,3.22,0,0,0,.5-2.32.33.33,0,0,0,.07-.44,3.32,3.32,0,0,0,.51-2.37.26.26,0,0,0,.06-.4,3.47,3.47,0,0,0,.52-2.41l.13-.14-.07-.19a2.59,2.59,0,0,0,.47-1.91c.88-.77,2-.44,2.94-.44q23.87,0,47.74.05a6,6,0,0,0,.82-.12,12.71,12.71,0,0,0,4.63.44,2.48,2.48,0,0,0,1.5.13,3.65,3.65,0,0,0,2.44.45l.53.08a3.34,3.34,0,0,0,2.28.53l.14.13.19-.05a1.45,1.45,0,0,0,1.35.44.3.3,0,0,0,.41.11,1.34,1.34,0,0,0,1.27.46.22.22,0,0,0,.34.11,1.51,1.51,0,0,0,1.32.56l0,0a1.22,1.22,0,0,0,1.15.58l0,0a.53.53,0,0,0,.62.41.28.28,0,0,0,.37.17.8.8,0,0,0,.75.49h0a1.28,1.28,0,0,0,1,.73l0-.06a.72.72,0,0,0,.64.57l0-.05a.72.72,0,0,0,.62.59l0-.05a.71.71,0,0,0,.58.63l0-.05a.76.76,0,0,0,.58.65l-.06-.06a1.27,1.27,0,0,0,.75,1l0,0a.63.63,0,0,0,.49.62l0,0a1,1,0,0,0,.54.81c0,.16,0,.26.16.3a.58.58,0,0,0,.43.64l0-.05a1.31,1.31,0,0,0,.6,1.16l0-.05a2.34,2.34,0,0,0,.64,1.66h0a2.4,2.4,0,0,0,.51,1.84.26.26,0,0,0,.07.4,8.69,8.69,0,0,0,.49,3.61,14.58,14.58,0,0,0,0,4.12,10.66,10.66,0,0,0-.47,4,.44.44,0,0,0-.08.52,3.51,3.51,0,0,0-.53,2.3l-.14.13.06.18a1.49,1.49,0,0,0-.46,1.36.21.21,0,0,0-.1.34,1.51,1.51,0,0,0-.55,1.33l0,0a1.23,1.23,0,0,0-.56,1.15h0a1.27,1.27,0,0,0-.61,1.12l0,0a1.29,1.29,0,0,0-.69,1.08l.06-.05a.68.68,0,0,0-.49.69l0,0a.62.62,0,0,0-.49.62l0,0a2.94,2.94,0,0,0-1.28,1.54l0,0a.69.69,0,0,0-.57.62l0,0a.7.7,0,0,0-.62.58l0,0a2.87,2.87,0,0,0-1.54,1.26l-.06,0a.58.58,0,0,0-.6.49v0a2.81,2.81,0,0,0-1.71,1.1h0a1.16,1.16,0,0,0-1.1.61h0a1.14,1.14,0,0,0-1.15.54h0a2,2,0,0,0-1.61.63l0,0a2,2,0,0,0-1.64.54h0a.57.57,0,0,0-.51,0c-.35-.06-.82-.1-.93.21s.32.53.62.66a3.68,3.68,0,0,0,.75.13l.62.11h0a1.22,1.22,0,0,0,1.12.52l0,0a1.23,1.23,0,0,0,1.07.56h0a1.23,1.23,0,0,0,1.06.65l0,0a.65.65,0,0,0,.65.5h0a.55.55,0,0,0,.56.47l.08.06a1.25,1.25,0,0,0,.92.76l-.06,0a.77.77,0,0,0,.61.61l-.05-.06a3.21,3.21,0,0,0,1.31,1.53l0,0a.63.63,0,0,0,.49.62l0,0a.7.7,0,0,0,.5.69l-.06-.06A1.34,1.34,0,0,0,92,77.46l0,0a1.32,1.32,0,0,0,.62,1.1h0a1.25,1.25,0,0,0,.54,1.15v0a1.43,1.43,0,0,0,.52,1.28.29.29,0,0,0,.11.4,1.41,1.41,0,0,0,.45,1.31.24.24,0,0,0,.08.37,3.89,3.89,0,0,0,.48,2.45A2.28,2.28,0,0,0,94.94,87a16.5,16.5,0,0,0,0,3.91,2.5,2.5,0,0,0-.1,1.53,5.57,5.57,0,0,0-.46,3,.4.4,0,0,0-.07.49,3.49,3.49,0,0,0-.58,2.31v0a2.11,2.11,0,0,0-.56,1.71v0A1.17,1.17,0,0,0,92.7,101a.26.26,0,0,0-.13.37,1.49,1.49,0,0,0-.58,1.28l0,0a1.23,1.23,0,0,0-.59,1.15l0,0a.57.57,0,0,0-.42.64.22.22,0,0,0-.15.32.87.87,0,0,0-.5.8h0a1.26,1.26,0,0,0-.69,1l0,0a.68.68,0,0,0-.51.67l0,0a.59.59,0,0,0-.49.61l0,0a2.8,2.8,0,0,0-1.27,1.54l0,0a.69.69,0,0,0-.57.63l0,0a.68.68,0,0,0-.59.6l0,0a.67.67,0,0,0-.6.58l0,0a.68.68,0,0,0-.62.57l0,0a2.78,2.78,0,0,0-1.54,1.28l0,0a.58.58,0,0,0-.59.49h0a.64.64,0,0,0-.64.51l0,0a1.16,1.16,0,0,0-1,.67l0,0a.61.61,0,0,0-.64.47l0,0a1.17,1.17,0,0,0-1.05.64l0,0A.6.6,0,0,0,79,116l0,0a1.21,1.21,0,0,0-1.1.63h0a1.18,1.18,0,0,0-1.13.58h0a1.2,1.2,0,0,0-1.16.55l0,0a2,2,0,0,0-1.59.67l0,0a1.09,1.09,0,0,0-1.15.48h0a1.94,1.94,0,0,0-1.67.61h0a2.17,2.17,0,0,0-1.79.55l-.24,0-.19.15a1.88,1.88,0,0,0-1.69.48h0a3.45,3.45,0,0,0-2.38.53l-.22-.06-.18.13a4.87,4.87,0,0,0-2.88.52l-.26-.07-.24.13a9.4,9.4,0,0,0-4,.48l-1,.08a7.52,7.52,0,0,0-.83-.09q-26.39.06-52.77.1c-.87,0-1.89.42-2.55-.59a.33.33,0,0,0,.07-.45,3.31,3.31,0,0,0,.51-2.35.29.29,0,0,0,.07-.42,3.41,3.41,0,0,0,.51-2.39.22.22,0,0,0,.06-.36,2.27,2.27,0,0,0,.44-1.88l.13-.87a2.35,2.35,0,0,0,.44-1.93.41.41,0,0,0,.08-.5,3.2,3.2,0,0,0,.5-2.31.33.33,0,0,0,.07-.45,3.29,3.29,0,0,0,.51-2.36.26.26,0,0,0,.07-.4A3.46,3.46,0,0,0,4,102.65l.13-.15L4,102.32a3.72,3.72,0,0,0,.52-2.48l.12-.12-.07-.17A2.36,2.36,0,0,0,5,97.61a.37.37,0,0,0,.08-.48,3.3,3.3,0,0,0,.5-2.33.33.33,0,0,0,.07-.44A3.36,3.36,0,0,0,6.2,92a.26.26,0,0,0,.07-.39,3.49,3.49,0,0,0,.51-2.42L6.91,89l-.07-.19A2.34,2.34,0,0,0,7.27,87a.44.44,0,0,0,.08-.52,3.13,3.13,0,0,0,.5-2.29.37.37,0,0,0,.08-.47,3.31,3.31,0,0,0,.5-2.33.32.32,0,0,0,.07-.44A3.37,3.37,0,0,0,9,78.53a.24.24,0,0,0,.06-.38,3.48,3.48,0,0,0,.52-2.43l.13-.14-.07-.18a2.39,2.39,0,0,0,.44-1.92.41.41,0,0,0,.07-.5,3.23,3.23,0,0,0,.5-2.3.35.35,0,0,0,.07-.47,3.28,3.28,0,0,0,.51-2.34.31.31,0,0,0,.07-.43,3.38,3.38,0,0,0,.51-2.38.23.23,0,0,0,.06-.37,3.49,3.49,0,0,0,.52-2.44l.12-.13L12.45,62A2.42,2.42,0,0,0,12.9,60a.42.42,0,0,0,.07-.51,3.22,3.22,0,0,0,.5-2.3.34.34,0,0,0,.07-.46,3.29,3.29,0,0,0,.51-2.35.28.28,0,0,0,.07-.41,3.43,3.43,0,0,0,.51-2.4.22.22,0,0,0,.06-.36,3.57,3.57,0,0,0,.52-2.45l.13-.13-.08-.16a2.4,2.4,0,0,0,.44-1.94.4.4,0,0,0,.08-.49,3.27,3.27,0,0,0,.5-2.32.33.33,0,0,0,.07-.45,3.31,3.31,0,0,0,.51-2.35.28.28,0,0,0,.07-.41,3.45,3.45,0,0,0,.51-2.4.2.2,0,0,0,.06-.34A3.71,3.71,0,0,0,18,35.32Zm12.35,66.31a10.34,10.34,0,0,0,1.4.21c6.44,0,12.88.08,19.32,0a28.76,28.76,0,0,0,11.22-2c4.77-2.08,6.94-6.44,6.19-12.49-.5-4.09-3.78-7.18-8.65-7.81-7.81-1-15.66-.25-23.49-.47-1.1,0-1.38.55-1.58,1.5C33.37,87.51,31.89,94.42,30.37,101.63Zm8.4-40.06c7.58-.15,14.76.24,21.93-.25a23.14,23.14,0,0,0,5-.82c4.89-1.44,7.37-4.83,7.33-10a6.61,6.61,0,0,0-3.9-6.29,15.59,15.59,0,0,0-6.76-1.58c-6-.1-12,0-17.93-.14a1.76,1.76,0,0,0-2.09,1.64C41.19,49.83,40,55.48,38.77,61.57Z"/><path class="cls-1" d="M291.81,89.7l-.25-.07-.24.12-28.46.1a6.33,6.33,0,0,0-1.38.11c-.43.11-.42.54-.43.91a.3.3,0,0,0-.08.43,3.41,3.41,0,0,0-.51,2.37.23.23,0,0,0-.07.37,3.59,3.59,0,0,0-.52,2.43v0a3.15,3.15,0,0,0-.51,2.27.35.35,0,0,0-.07.47,3.28,3.28,0,0,0-.51,2.34.26.26,0,0,0-.07.4,3.47,3.47,0,0,0-.52,2.41l-.13.14.07.18a2.3,2.3,0,0,0-.43,1.91.4.4,0,0,0-.08.5,3.15,3.15,0,0,0-.51,2.31.31.31,0,0,0-.08.43,3.43,3.43,0,0,0-.51,2.38.22.22,0,0,0-.06.36,3.59,3.59,0,0,0-.53,2.43h0a3.13,3.13,0,0,0-.5,2.26.35.35,0,0,0-.08.47,3.28,3.28,0,0,0-.51,2.34.26.26,0,0,0-.07.4c-.5.52-.43,1.2-.56,1.83l0,0c-4.58,0-9.16.11-13.73.08-4.21,0-8.41.2-12.61-.14l.07.06a1,1,0,0,0-.08-.51l.13-.13-.07-.17a2.4,2.4,0,0,0,.44-1.94.41.41,0,0,0,.07-.5,3.19,3.19,0,0,0,.51-2.31.34.34,0,0,0,.07-.45,3.32,3.32,0,0,0,.51-2.36.25.25,0,0,0,.07-.39,3.44,3.44,0,0,0,.51-2.42l.13-.14-.07-.18a2.37,2.37,0,0,0,.44-1.91.41.41,0,0,0,.08-.5,3.23,3.23,0,0,0,.5-2.31.33.33,0,0,0,.07-.45,3.28,3.28,0,0,0,.51-2.36.26.26,0,0,0,.07-.4,3.45,3.45,0,0,0,.51-2.4l.13-.15-.06-.18a2.37,2.37,0,0,0,.43-1.91.42.42,0,0,0,.08-.51,3.22,3.22,0,0,0,.5-2.3.33.33,0,0,0,.08-.45,3.31,3.31,0,0,0,.5-2.35.29.29,0,0,0,.07-.42,3.37,3.37,0,0,0,.52-2.39.21.21,0,0,0,.06-.35,2.33,2.33,0,0,0,.44-1.89.45.45,0,0,0,.07-.52,3.13,3.13,0,0,0,.5-2.29.37.37,0,0,0,.08-.47,3.2,3.2,0,0,0,.5-2.33.31.31,0,0,0,.07-.43,3.34,3.34,0,0,0,.52-2.38.22.22,0,0,0,.06-.36,2.26,2.26,0,0,0,.43-1.88c.05-.29.09-.58.14-.87A2.4,2.4,0,0,0,238,74a.36.36,0,0,0,.07-.47,3.2,3.2,0,0,0,.5-2.33.32.32,0,0,0,.08-.44,3.37,3.37,0,0,0,.51-2.37.23.23,0,0,0,.06-.37,3.49,3.49,0,0,0,.52-2.44l.13-.13-.08-.17a2.36,2.36,0,0,0,.45-1.94.37.37,0,0,0,.07-.48,3.18,3.18,0,0,0,.5-2.32.33.33,0,0,0,.08-.45,3.28,3.28,0,0,0,.51-2.36.25.25,0,0,0,.07-.39A3.49,3.49,0,0,0,242,55l.13-.13-.07-.17a2.44,2.44,0,0,0,.44-1.94.41.41,0,0,0,.07-.5,3.18,3.18,0,0,0,.51-2.3.33.33,0,0,0,.07-.45,3.29,3.29,0,0,0,.51-2.36.26.26,0,0,0,.07-.4,3.41,3.41,0,0,0,.51-2.41l.13-.15-.07-.18a2.34,2.34,0,0,0,.44-1.91.41.41,0,0,0,.08-.5,3.17,3.17,0,0,0,.5-2.3.33.33,0,0,0,.07-.46,3.25,3.25,0,0,0,.51-2.35.27.27,0,0,0,.07-.4,3.49,3.49,0,0,0,.52-2.41l.12-.15-.06-.18a2.37,2.37,0,0,0,.43-1.91.41.41,0,0,0,.08-.51,3.19,3.19,0,0,0,.5-2.29.35.35,0,0,0,.08-.46,3.31,3.31,0,0,0,.5-2.35.29.29,0,0,0,.07-.42,3.36,3.36,0,0,0,.52-2.39l.12-.14-.07-.17.62-.77c11.82,0,23.64.06,35.47.06,5.49,0,11,0,16.46-.05a7.77,7.77,0,0,0,3.51.46l.89.12a2.49,2.49,0,0,0,1.92.48.24.24,0,0,0,.37.08,1.38,1.38,0,0,0,1.32.45l.23.15h.27l0,0a1.18,1.18,0,0,0,1.19.48h0a1.19,1.19,0,0,0,1.1.51c.06.15.16.19.32.12a.79.79,0,0,0,.8.44l.11.15.18,0a.87.87,0,0,0,.82.49h0a1.25,1.25,0,0,0,1.06.66l0,0a.62.62,0,0,0,.65.48l0,0a1.24,1.24,0,0,0,1,.72l0,0a.67.67,0,0,0,.62.51l0,0a.7.7,0,0,0,.63.56v0a.61.61,0,0,0,.59.56h0a.68.68,0,0,0,.58.57v0a.66.66,0,0,0,.56.6l0,0a.69.69,0,0,0,.57.62l0,0a.72.72,0,0,0,.56.65l-.05-.05a1.33,1.33,0,0,0,.74,1,.63.63,0,0,0,.5.63h0a.68.68,0,0,0,.5.68l-.06-.06a1.29,1.29,0,0,0,.68,1.08v0a1.23,1.23,0,0,0,.61,1.08v0a1.19,1.19,0,0,0,.56,1.09v0a1.24,1.24,0,0,0,.52,1.14h0a1.26,1.26,0,0,0,.5,1.21l0,0,.15.51a1.3,1.3,0,0,0,.46,1.26.31.31,0,0,0,.1.43,2.16,2.16,0,0,0,.48,1.76.4.4,0,0,0,.08.49,3.55,3.55,0,0,0,.46,2.38c0,.33.06.66.1,1v10.1l0,.55a.33.33,0,0,0-.05.46,5.21,5.21,0,0,0-.49,2.91.33.33,0,0,0-.07.45,3.64,3.64,0,0,0-.58,2.34l0,0a2,2,0,0,0-.53,1.72h0a2.13,2.13,0,0,0-.61,1.67l0,0a1.19,1.19,0,0,0-.51,1.16v0a1.17,1.17,0,0,0-.52,1.1.41.41,0,0,0-.2.47l0,0a.63.63,0,0,0-.42.7l0,.06a1.2,1.2,0,0,0-.59,1.06,1.23,1.23,0,0,0-.64,1.07h0a.59.59,0,0,0-.47.64l0,0a1.2,1.2,0,0,0-.68,1l0,0a.66.66,0,0,0-.52.65h0a.58.58,0,0,0-.5.6l0,0a2.74,2.74,0,0,0-1.29,1.51l0,0a.72.72,0,0,0-.59.61l0,0a.68.68,0,0,0-.6.6l0,0A.69.69,0,0,0,317,79l0,0a2.86,2.86,0,0,0-1.52,1.28l0,0a.57.57,0,0,0-.59.51h0a.64.64,0,0,0-.64.51l0,0a2.67,2.67,0,0,0-1.66,1.18h0a2.64,2.64,0,0,0-1.71,1.1h0a1.13,1.13,0,0,0-1.07.62h0a1.12,1.12,0,0,0-1.08.58l0,0a1.11,1.11,0,0,0-1.05.54l-.06,0a1.11,1.11,0,0,0-1.1.51l0,0a1.11,1.11,0,0,0-1.14.51h0a2,2,0,0,0-1.61.61l0,0a1.38,1.38,0,0,0-1.33.47.21.21,0,0,0-.34.1,2,2,0,0,0-1.67.52h0a2.31,2.31,0,0,0-1.86.5l-.2-.06-.16.13a3.5,3.5,0,0,0-2.36.51.32.32,0,0,0-.45.07A6.86,6.86,0,0,0,291.81,89.7ZM265.62,68.4c6.11,0,12,0,17.87,0a36,36,0,0,0,6.13-.52c7.35-1.23,11.16-5.45,11.6-12.88.35-5.79-2.15-9.25-7.75-10.6a20.71,20.71,0,0,0-4.71-.71c-5.42,0-10.84,0-16.26-.13-1.44,0-1.89.55-2.13,1.88-.54,3-1.28,6-1.91,9C267.51,59,266.6,63.59,265.62,68.4Z"/><path class="cls-1" d="M171.22,148.11a5.66,5.66,0,0,0-2.59-.08,12.66,12.66,0,0,0-4.7-.49l-.22-.13-.23.07a5.13,5.13,0,0,0-2.93-.52l-.14-.13-.18.07a2.41,2.41,0,0,0-1.92-.49l-.14-.13-.19.05a1.38,1.38,0,0,0-1.34-.44l-.18-.14-.23,0a1.33,1.33,0,0,0-1.28-.47l-.13-.14-.18,0a1.5,1.5,0,0,0-1.34-.54h0a1.11,1.11,0,0,0-1.13-.53h0a1.15,1.15,0,0,0-1.11-.55h0a1.2,1.2,0,0,0-1.1-.59h0a3,3,0,0,0-1.69-1.13l0,0a.61.61,0,0,0-.61-.51l0,0a9.66,9.66,0,0,0-2.23-2.19l0,0a.55.55,0,0,0-.49-.58h0a.68.68,0,0,0-.52-.65l.05.05a1.23,1.23,0,0,0-.68-1.05v0a.66.66,0,0,0-.45-.69l.05,0a1.31,1.31,0,0,0-.62-1.14l0,0a2.25,2.25,0,0,0-.69-1.64h0a2.17,2.17,0,0,0-.55-1.7v0a3.87,3.87,0,0,0-.53-2.42l-.1-1c0-.55.06-1.11,0-1.66-.15-2.63.21-2.34,2.19-2.34h19.73a4.6,4.6,0,0,1,2.17.32.94.94,0,0,0,.07.89,4.7,4.7,0,0,0,1.54,4.05l0,0a1.55,1.55,0,0,0,1.16,1.19l0-.05a.67.67,0,0,0,.68.5l0,0a.5.5,0,0,0,.6.43.28.28,0,0,0,.38.17,1.3,1.3,0,0,0,1.3.5h0a2.59,2.59,0,0,0,2.23.49,10.1,10.1,0,0,0,4,0c3.08,0,5.82-.81,7.89-3.26h0a.67.67,0,0,0,.6-.57l0,0a.68.68,0,0,0,.61-.58l0,0c2.63-2.21,3.11-5.42,3.9-8.48v0a1.92,1.92,0,0,0,.5-1.72.33.33,0,0,0,.07-.45,17.9,17.9,0,0,0,1.16-5.11,4.13,4.13,0,0,0,.44-.93c.07-.38.33-1-.24-1.09s-.69.44-.81.87l-3.45,3.28h0a13.81,13.81,0,0,0-3.26,1.74l-.06,0a1.12,1.12,0,0,0-1.14.5h0a1.9,1.9,0,0,0-1.67.58h0a2.43,2.43,0,0,0-1.9.53l-.17-.07-.14.13a5.52,5.52,0,0,0-2.94.51l-.23-.07-.2.12-6.71,0h0a6.84,6.84,0,0,0-3.37-.57h0a3.23,3.23,0,0,0-2.23-.6h0a2,2,0,0,0-1.68-.6h0a27.61,27.61,0,0,0-4.46-2.29l0,0a.64.64,0,0,0-.66-.48h0a2.7,2.7,0,0,0-1.63-1.21l0,0a.68.68,0,0,0-.63-.56h0a2,2,0,0,0-1.13-1.07.66.66,0,0,0-.58-.57h0a.6.6,0,0,0-.56-.58h0a.67.67,0,0,0-.56-.63l0,0a.69.69,0,0,0-.54-.65l0,0a1.24,1.24,0,0,0-.73-1l0,0a.63.63,0,0,0-.49-.64l0,0a1.21,1.21,0,0,0-.64-1l0,0a.63.63,0,0,0-.45-.68l0,0a1.24,1.24,0,0,0-.62-1.13l0,0a1.27,1.27,0,0,0-.57-1.17l0,0a2.16,2.16,0,0,0-.67-1.64h0a1.54,1.54,0,0,0-.49-1.37l.06-.18-.14-.12a2.35,2.35,0,0,0-.5-1.84.28.28,0,0,0-.08-.41,3.8,3.8,0,0,0-.47-2.49,2.16,2.16,0,0,0-.12-1.44V86.39a2.46,2.46,0,0,0,.1-1.54,7.28,7.28,0,0,0,.49-3.51.35.35,0,0,0,.06-.47,3.32,3.32,0,0,0,.48-2.34.32.32,0,0,0,.08-.45,2.16,2.16,0,0,0,.48-1.79.36.36,0,0,0,.09-.45,2.22,2.22,0,0,0,.53-1.8v0a2.05,2.05,0,0,0,.57-1.7h0a2.1,2.1,0,0,0,.61-1.68l0,0a1.21,1.21,0,0,0,.5-1.19v0a2.17,2.17,0,0,0,.69-1.61l0,.06a1.35,1.35,0,0,0,.58-1.19l0,0a1.32,1.32,0,0,0,.62-1.15l-.05.07a.65.65,0,0,0,.43-.7l0,0a1.22,1.22,0,0,0,.61-1h0a1.31,1.31,0,0,0,.69-1.07l-.06.06a.67.67,0,0,0,.49-.68h0a1.28,1.28,0,0,0,.72-1l-.06.06a.71.71,0,0,0,.53-.67l0,0A.68.68,0,0,0,155,60h0a.56.56,0,0,0,.5-.58l0,0a2.91,2.91,0,0,0,1.31-1.52l-.05,0a.71.71,0,0,0,.59-.63l-.05.05a.73.73,0,0,0,.6-.62l0,.05a.72.72,0,0,0,.63-.58l0,0a.73.73,0,0,0,.61-.61l0,.06a1.25,1.25,0,0,0,.92-.76l.07-.06a.53.53,0,0,0,.54-.48l0,0a.62.62,0,0,0,.59-.51v0a.69.69,0,0,0,.65-.53l0,0a1.26,1.26,0,0,0,1-.7l.06,0a.61.61,0,0,0,.62-.47l0,0a1.23,1.23,0,0,0,1-.63l.06,0a.6.6,0,0,0,.66-.45l0,0a1.24,1.24,0,0,0,1.12-.62h0a1.23,1.23,0,0,0,1.14-.57h0a1.37,1.37,0,0,0,1.26-.55.3.3,0,0,0,.4-.13,1.22,1.22,0,0,0,1.17-.47.46.46,0,0,0,.52-.12,1.3,1.3,0,0,0,1.22-.42.36.36,0,0,0,.46-.1,2.32,2.32,0,0,0,1.82-.45l1-.13a8.17,8.17,0,0,0,3.5-.44,17.39,17.39,0,0,0,4.67,0,8,8,0,0,0,3.59.44l1,.12a2.3,2.3,0,0,0,1.84.45.38.38,0,0,0,.47.1,1.28,1.28,0,0,0,1.21.42.44.44,0,0,0,.51.12,1.23,1.23,0,0,0,1.18.48.24.24,0,0,0,.35.13.74.74,0,0,0,.77.41.26.26,0,0,0,.37.14.76.76,0,0,0,.76.45l.07,0a1.21,1.21,0,0,0,1,.62h0a.6.6,0,0,0,.61.47l.06,0a1.3,1.3,0,0,0,1,.73l0-.06a.72.72,0,0,0,.64.57l0,0a.72.72,0,0,0,.61.6l0-.05a.72.72,0,0,0,.59.63l-.05-.05a.72.72,0,0,0,.57.65l-.06-.06a1.26,1.26,0,0,0,.74,1v0a.66.66,0,0,0,.49.66l-.05,0a1.3,1.3,0,0,0,.65,1.1h0a1.32,1.32,0,0,0,.58,1.12h0c0,.31-.07.77.41.73.24,0,.31-.4.24-.69l0,0a3,3,0,0,0,.49-2.32.26.26,0,0,0,.06-.4,3.33,3.33,0,0,0,.48-2.4.33.33,0,0,0,.07-.46,3.26,3.26,0,0,0,.48-2.34c.42-1.37,1.56-1.08,2.56-1.08h18.78l1.68,0c0,.74,0,1.48,0,2.22a.27.27,0,0,0-.07.41,3.43,3.43,0,0,0-.5,2.4.24.24,0,0,0-.07.38,3.46,3.46,0,0,0-.51,2.43l-.13.14.07.18a2.33,2.33,0,0,0-.43,1.91.42.42,0,0,0-.08.51,3.17,3.17,0,0,0-.5,2.3.36.36,0,0,0-.08.47,3.36,3.36,0,0,0-.5,2.33.32.32,0,0,0-.07.44,3.35,3.35,0,0,0-.5,2.37.25.25,0,0,0-.07.39,3.5,3.5,0,0,0-.51,2.42.22.22,0,0,0-.06.36,2.21,2.21,0,0,0-.43,1.87.45.45,0,0,0-.08.53,3.23,3.23,0,0,0-.5,2.28.41.41,0,0,0-.07.5,3.15,3.15,0,0,0-.5,2.31.33.33,0,0,0-.08.45,3.32,3.32,0,0,0-.5,2.36.27.27,0,0,0-.07.41,3.38,3.38,0,0,0-.51,2.4.22.22,0,0,0-.06.36,2.26,2.26,0,0,0-.44,1.87c0,.3-.09.59-.13.89a2.36,2.36,0,0,0-.44,1.92.43.43,0,0,0-.08.5,3.18,3.18,0,0,0-.5,2.3.37.37,0,0,0-.07.47,3.28,3.28,0,0,0-.5,2.34.3.3,0,0,0-.07.43,3.34,3.34,0,0,0-.51,2.38.24.24,0,0,0-.07.38,3.52,3.52,0,0,0-.5,2.43c-.15.09-.18.2-.07.34a2.29,2.29,0,0,0-.43,1.89.44.44,0,0,0-.08.52,3.19,3.19,0,0,0-.49,2.29.4.4,0,0,0-.08.49,3.17,3.17,0,0,0-.5,2.32.31.31,0,0,0-.08.44,3.41,3.41,0,0,0-.51,2.37c-.15.09-.18.2-.07.34a2.32,2.32,0,0,0-.47,1.9.25.25,0,0,0-.09.38,2.38,2.38,0,0,0-.49,1.87.21.21,0,0,0-.08.34,2.38,2.38,0,0,0-.52,1.89v0a2,2,0,0,0-.53,1.72l-.14.13.06.18a1.5,1.5,0,0,0-.46,1.37.22.22,0,0,0-.1.35,1.47,1.47,0,0,0-.48,1.34l-.14.12.05.18a1.51,1.51,0,0,0-.51,1.37v0a1.16,1.16,0,0,0-.47,1.14.3.3,0,0,0-.13.41,1.38,1.38,0,0,0-.53,1.27v0a1.19,1.19,0,0,0-.52,1.15v0a1.17,1.17,0,0,0-.53,1.11l0,0a1.22,1.22,0,0,0-.54,1.08l0,0a1.19,1.19,0,0,0-.57,1.08h0a1.25,1.25,0,0,0-.61,1.09l0,0A1.24,1.24,0,0,0,207,134l0-.06a.66.66,0,0,0-.48.68h0a1.24,1.24,0,0,0-.7,1l0,0a.68.68,0,0,0-.51.67l0,0a.6.6,0,0,0-.5.61l0,0a2.72,2.72,0,0,0-1.28,1.53l0,0a.71.71,0,0,0-.59.61l0,0a.69.69,0,0,0-.6.6l0,0A2.78,2.78,0,0,0,201,140.8l-.06,0a.58.58,0,0,0-.59.49h0a.64.64,0,0,0-.66.49l0,0a1.2,1.2,0,0,0-1,.68h0a2.75,2.75,0,0,0-1.76,1h0a1.26,1.26,0,0,0-1.14.57l.12.08-.11-.1a2.08,2.08,0,0,0-1.58.69l0,0a1.1,1.1,0,0,0-1.16.47h0a2.46,2.46,0,0,0-1.8.59l-.22,0-.18.14a1.93,1.93,0,0,0-1.68.5h0a3.28,3.28,0,0,0-2.34.54l-.24-.06-.2.13a5,5,0,0,0-2.92.49l-.24-.07-.21.12a15.63,15.63,0,0,0-5.27.51,5.53,5.53,0,0,0-2.59.06A16.07,16.07,0,0,0,171.22,148.11Zm27-67.81a18,18,0,0,0-2.09-9.44,9.53,9.53,0,0,0-8.39-5.21c-6-.28-10.73,2-14,7.06a28.25,28.25,0,0,0-4.09,19.87c.76,5.53,3.81,9,8.58,9.81,5.84,1,11-.56,14.77-5.32S198.31,86.86,198.26,80.3Z"/><path class="cls-1" d="M367.27,47.16a37.42,37.42,0,0,0,6.94,0,20.83,20.83,0,0,0,5.79.45,2.12,2.12,0,0,0,1.45.11,3.61,3.61,0,0,0,2.47.43l1,.13a2.26,2.26,0,0,0,1.84.43l.55.09a2.09,2.09,0,0,0,1.7.48.37.37,0,0,0,.47.1,1.23,1.23,0,0,0,1.22.45l.21.14.26,0a1.3,1.3,0,0,0,1.21.48l.14.15.21,0a.73.73,0,0,0,.78.39.45.45,0,0,0,.49.17v0a.51.51,0,0,0,.63.4.44.44,0,0,0,.49.2l0,0a.6.6,0,0,0,.66.44l.07,0a1.16,1.16,0,0,0,1,.62h0a.59.59,0,0,0,.61.47l.06,0a1.16,1.16,0,0,0,.94.71l0,0a.71.71,0,0,0,.65.57l0,0a.71.71,0,0,0,.61.59l0,0a.73.73,0,0,0,.58.64l-.06-.06a3.2,3.2,0,0,0,1.24,1.63h0a.94.94,0,0,0,.52.82c-.07.15,0,.25.14.3a.79.79,0,0,0,.42.78.23.23,0,0,0,.13.34,1.2,1.2,0,0,0,.48,1.15v0a2.67,2.67,0,0,0,.53,1.91l-.07.18.13.14.07.57,0,7.28-.09.93a5.28,5.28,0,0,0-.47,3l-.07.54v0a4.6,4.6,0,0,0-.53,2.84.25.25,0,0,0-.06.39,3.49,3.49,0,0,0-.49,2.42.26.26,0,0,0-.07.4,3.58,3.58,0,0,0-.51,2.41q-.22.14-.06.36a2.31,2.31,0,0,0-.46,1.88l-.09.53v0a1.92,1.92,0,0,0-.45,1.73l-.09.55h0a3.15,3.15,0,0,0-.54,2.27.34.34,0,0,0-.11.45,2.15,2.15,0,0,0-.43,1.79.25.25,0,0,0-.08.39,2.29,2.29,0,0,0-.47,1.85.32.32,0,0,0-.08.44,2.13,2.13,0,0,0-.46,1.8.37.37,0,0,0-.09.48,2.06,2.06,0,0,0-.46,1.78l-.1.54v0a3,3,0,0,0-.54,2.28.21.21,0,0,0-.06.35,2.27,2.27,0,0,0-.48,1.89.27.27,0,0,0-.08.4,2.2,2.2,0,0,0-.45,1.85l-.08.54v0a3,3,0,0,0-.48,2.29l-.07.56-.12.15.07.18a4.8,4.8,0,0,0-.45,3,2.42,2.42,0,0,0-.12,1.59l0,0a2.64,2.64,0,0,0,0,2.46c0,.33.05.65.08,1a2.76,2.76,0,0,0,.51,2.27v0c.11,1.08-.56,1.17-1.4,1.16l-22.12-.13.06.05a8.41,8.41,0,0,0-.6-2.92,1.06,1.06,0,0,0-.05-1l0-1.68c.08-.33.2-.71-.28-.76-.1,0-.26.39-.39.6h0a.69.69,0,0,0-.54.66l0,0a.67.67,0,0,0-.57.61h0a.62.62,0,0,0-.57.57v0a.67.67,0,0,0-.6.57l0,0a.69.69,0,0,0-.63.55l0,0a1.28,1.28,0,0,0-1,.72.6.6,0,0,0-.64.49v0a1.24,1.24,0,0,0-1.07.62,1.29,1.29,0,0,0-1.1.59,1.19,1.19,0,0,0-1.12.52l-.05,0a1.11,1.11,0,0,0-1.15.48h0a2.32,2.32,0,0,0-1.75.56.32.32,0,0,0-.43.11,2.29,2.29,0,0,0-1.87.47l-.21-.07L357,124a7.61,7.61,0,0,0-3.53.5,1.05,1.05,0,0,0-1,.08h-6.73l-.56,0-.23-.12-.24.08a7.2,7.2,0,0,0-3.46-.52l-.16-.14-.2.07a2.35,2.35,0,0,0-1.88-.48l-.15-.14-.19,0a1.42,1.42,0,0,0-1.34-.46.34.34,0,0,0-.46-.15h0a1.17,1.17,0,0,0-1.17-.5h0a1.16,1.16,0,0,0-1.13-.55h0a1.16,1.16,0,0,0-1.1-.6v0a.56.56,0,0,0-.64-.46l-.07,0a1.15,1.15,0,0,0-1-.64v0a.6.6,0,0,0-.61-.5l0,0a10.76,10.76,0,0,0-2.23-2.19l0,0a.63.63,0,0,0-.5-.61l0,0a.7.7,0,0,0-.49-.69l0,0a1.24,1.24,0,0,0-.65-1l0,0a1.26,1.26,0,0,0-.58-1.16l0,0a2.3,2.3,0,0,0-.64-1.65h0a2.35,2.35,0,0,0-.53-1.78.36.36,0,0,0-.08-.46,4.06,4.06,0,0,0-.46-2.51,3.8,3.8,0,0,0-.11-2,8.43,8.43,0,0,0,0-2.79,4,4,0,0,0,.12-2,4,4,0,0,0,.46-2.5.34.34,0,0,0,.08-.45,2.2,2.2,0,0,0,.54-1.79h0a1.19,1.19,0,0,0,.48-1.13.3.3,0,0,0,.13-.4,1.46,1.46,0,0,0,.6-1.24l0,0a1.35,1.35,0,0,0,.64-1.15l0,0a.63.63,0,0,0,.45-.67h0a1.21,1.21,0,0,0,.68-1l0,0a.7.7,0,0,0,.53-.67l0,0a.66.66,0,0,0,.53-.61h0a.56.56,0,0,0,.51-.56l0-.05a.57.57,0,0,0,.51-.51l0,0a.59.59,0,0,0,.57-.52h0a.64.64,0,0,0,.6-.52l0,0a.7.7,0,0,0,.66-.52l-.06,0a1.3,1.3,0,0,0,1-.69h0a.8.8,0,0,0,.76-.48H335l.15-.16a.52.52,0,0,0,.62-.43v0a1.34,1.34,0,0,0,1.19-.58,1.08,1.08,0,0,0,1.06-.46l.5-.2a1.15,1.15,0,0,0,1.14-.48h0a2.05,2.05,0,0,0,1.67-.57h0a2.07,2.07,0,0,0,1.71-.55.46.46,0,0,0,.52-.1,10.43,10.43,0,0,0,3.58-1l.92-.14a3.48,3.48,0,0,0,2.32-.45l1-.11a5,5,0,0,0,2.94-.44,2.65,2.65,0,0,0,1.55-.12,7,7,0,0,0,3.54-.43l3.76-.14c1.94.06,3.9.28,5.79-.42a2.22,2.22,0,0,0,1.5-.12,2.82,2.82,0,0,0,2.3-.47.43.43,0,0,0,.51-.1,1.37,1.37,0,0,0,1.31-.42.23.23,0,0,0,.36-.1,1.09,1.09,0,0,0,1.21-.45l0,0a1,1,0,0,0,1.09-.65h0a.66.66,0,0,0,.61-.56l0,0a.66.66,0,0,0,.59-.6l0,0c2.46-2.12,2.69-4.75,1.7-7.64l.07-.16L380,67.3a4.54,4.54,0,0,0-3.85-3.48v0c-.46-.6-1.11-.53-1.76-.49l-.14-.13-.17.09a13.42,13.42,0,0,0-7.69,0l-.22-.07-.2.13a2.62,2.62,0,0,0-2.2.55l-.06,0a1,1,0,0,0-1.15.49h0a1.11,1.11,0,0,0-1.12.59h0a.62.62,0,0,0-.66.49l0,0a1.56,1.56,0,0,0-1.18,1.15l.05,0a.66.66,0,0,0-.52.68l0,0a1.16,1.16,0,0,0-.64,1.13l0-.05a1.16,1.16,0,0,0-.49,1.21h0c-.64.62-.53,1.46-.63,2.24l.08-.07a10.5,10.5,0,0,1-3.06.2c-5.69,0-11.37,0-17.05,0-.88,0-1.86-.4-2.63.4.32-.41-.12-.66-.22-1a3.51,3.51,0,0,0,.56-2.33v0a2.1,2.1,0,0,0,.53-1.71.2.2,0,0,0,.08-.33,1.51,1.51,0,0,0,.52-1.35v0a1.16,1.16,0,0,0,.5-1.15.2.2,0,0,0,.11-.32.77.77,0,0,0,.41-.79.27.27,0,0,0,.15-.37.73.73,0,0,0,.43-.75.4.4,0,0,0,.22-.45l0,0a.68.68,0,0,0,.45-.71h0a1.32,1.32,0,0,0,.67-1.08l0,.06a.66.66,0,0,0,.5-.66h0a1.3,1.3,0,0,0,.74-1l-.06.06a.76.76,0,0,0,.56-.67l0,.05a.7.7,0,0,0,.57-.63l0,0a.69.69,0,0,0,.58-.6l0,0a.66.66,0,0,0,.59-.58l0,0a.68.68,0,0,0,.59-.58l0,0a.71.71,0,0,0,.63-.57l-.05,0a.71.71,0,0,0,.66-.55l-.05.05a1.24,1.24,0,0,0,1-.73l0,0a.61.61,0,0,0,.63-.48l0,0a1.24,1.24,0,0,0,1-.65l.07,0a.6.6,0,0,0,.65-.44l0,0a1.25,1.25,0,0,0,1.12-.62h0a1.18,1.18,0,0,0,1.13-.57h0a1.22,1.22,0,0,0,1.16-.52,2,2,0,0,0,1.59-.64h0a1.42,1.42,0,0,0,1.31-.48.23.23,0,0,0,.36-.09,2.09,2.09,0,0,0,1.72-.52l.27,0,.25-.13a2.12,2.12,0,0,0,1.76-.46.41.41,0,0,0,.5-.07,3.66,3.66,0,0,0,2.44-.46,2.45,2.45,0,0,0,1.49-.13A13.27,13.27,0,0,0,367.27,47.16Zm9.46,42A22.76,22.76,0,0,1,371,91c-3.23.5-6.46.91-9.73,1.1a15.54,15.54,0,0,0-9.1,3.15c-2.8,2.22-3.42,5.25-2.93,8.56A6,6,0,0,0,354,109c6.46,1.61,12.35.45,16.9-4.58C374.68,100.3,376.06,95.05,376.73,89.2Z"/><path class="cls-2" d="M392.91,158.16l-.17-.1-.17.07a3.87,3.87,0,0,0-2.44-.53h0a2.06,2.06,0,0,0-1.69-.55h0a1.44,1.44,0,0,0-1.05-.61,1.74,1.74,0,0,1,.06-.45.46.46,0,0,0,.45-.14,1.25,1.25,0,0,0,1.2-.42.43.43,0,0,0,.47-.1,1.24,1.24,0,0,0,1.22-.46.42.42,0,0,0,.47-.12,1.1,1.1,0,0,0,1.11-.47h0a1.32,1.32,0,0,0,1.24-.52.43.43,0,0,0,.45-.15.73.73,0,0,0,.74-.4.31.31,0,0,0,.38-.14.76.76,0,0,0,.76-.42.28.28,0,0,0,.36-.14.71.71,0,0,0,.72-.43.35.35,0,0,0,.4-.16.52.52,0,0,0,.61-.42l0,0a1.21,1.21,0,0,0,1.09-.62h0a.89.89,0,0,0,.8-.49.25.25,0,0,0,.33-.17.53.53,0,0,0,.59-.44l0,0a1.15,1.15,0,0,0,1-.63l.08,0a.6.6,0,0,0,.61-.47l0,0a.91.91,0,0,0,.76-.54.32.32,0,0,0,.37-.2.49.49,0,0,0,.52-.43h0a.64.64,0,0,0,.62-.51l0,0a.72.72,0,0,0,.66-.55l-.06.06a1.21,1.21,0,0,0,1-.72l.05,0a.59.59,0,0,0,.58-.49h0a.69.69,0,0,0,.62-.54l0,0a.71.71,0,0,0,.64-.57l-.05.05a.72.72,0,0,0,.64-.58l0,.06a1.13,1.13,0,0,0,.93-.74l.09-.07a.52.52,0,0,0,.5-.47l.06-.06a.58.58,0,0,0,.53-.5l0,0a.6.6,0,0,0,.56-.53h0a.63.63,0,0,0,.55-.55h0a.69.69,0,0,0,.57-.54h0a.67.67,0,0,0,.58-.56h0a.69.69,0,0,0,.57-.57h0a.65.65,0,0,0,.55-.58h0a.68.68,0,0,0,.53-.57h0a.6.6,0,0,0,.54-.55l0,0a.56.56,0,0,0,.52-.55l0,0a.56.56,0,0,0,.5-.53l.06-.06a.52.52,0,0,0,.47-.5l.07-.08a1.16,1.16,0,0,0,.76-.93l-.07.05a.73.73,0,0,0,.59-.64l-.05.05a.71.71,0,0,0,.58-.63l-.05,0a.69.69,0,0,0,.57-.62l0,0a.68.68,0,0,0,.54-.61h0a.6.6,0,0,0,.5-.57l0,0a.56.56,0,0,0,.48-.55l.08-.1a1.12,1.12,0,0,0,.69-.92l0,0a.7.7,0,0,0,.56-.64l0,0a.68.68,0,0,0,.52-.61l0,0a.57.57,0,0,0,.47-.57l.05-.07a1.22,1.22,0,0,0,.71-1l-.06,0a.69.69,0,0,0,.55-.64l0,0a.65.65,0,0,0,.49-.61l0,0a1.19,1.19,0,0,0,.71-1l0,0a.68.68,0,0,0,.52-.63h0a.63.63,0,0,0,.49-.61l0,0a1.27,1.27,0,0,0,.7-1l-.06,0a.67.67,0,0,0,.52-.65h0a.59.59,0,0,0,.47-.61l0-.07a1.17,1.17,0,0,0,.67-1l0,0a.65.65,0,0,0,.5-.64l0,0a1.2,1.2,0,0,0,.67-1l0,0a.66.66,0,0,0,.5-.66h0a1.26,1.26,0,0,0,.68-1.07l-.06.06a.68.68,0,0,0,.51-.66h0a1.26,1.26,0,0,0,.68-1.07l-.06.06a.68.68,0,0,0,.5-.68h0a1.3,1.3,0,0,0,.67-1.09l-.06.06a.65.65,0,0,0,.49-.67h0a1.27,1.27,0,0,0,.66-1.07l-.05,0a.65.65,0,0,0,.48-.66l0,0a1.26,1.26,0,0,0,.63-1.06l0,0A.56.56,0,0,0,436,110a.24.24,0,0,0,.16-.33.91.91,0,0,0,.51-.8h0a1.28,1.28,0,0,0,.64-1.1l0,.05a.62.62,0,0,0,.46-.66l0,0a1.17,1.17,0,0,0,.61-1,1.27,1.27,0,0,0,.64-1.1l-.05,0a.62.62,0,0,0,.46-.66l0,0a1.19,1.19,0,0,0,.6-1h0a1.25,1.25,0,0,0,.63-1.1l0,0a1.31,1.31,0,0,0,.65-1.14l-.06.07a.65.65,0,0,0,.46-.69v0a1.24,1.24,0,0,0,.6-1.07h0a1.26,1.26,0,0,0,.62-1.12l0,0a1.26,1.26,0,0,0,.63-1.14l-.05.06a.59.59,0,0,0,.43-.65.23.23,0,0,0,.14-.32.88.88,0,0,0,.47-.81v0a1.23,1.23,0,0,0,.58-1.09h0a1.22,1.22,0,0,0,.59-1.11v0a1.25,1.25,0,0,0,.6-1.14l0,0a1.3,1.3,0,0,0,.61-1.15l0,0a1.27,1.27,0,0,0,.61-1.15l-.05.06a.58.58,0,0,0,.42-.65.3.3,0,0,0,.15-.38,1.58,1.58,0,0,0,.63-1.26l-.06.07A.6.6,0,0,0,449,87a.23.23,0,0,0,.13-.33.81.81,0,0,0,.44-.79.23.23,0,0,0,.12-.33.82.82,0,0,0,.44-.79.23.23,0,0,0,.12-.33.82.82,0,0,0,.44-.79.24.24,0,0,0,.13-.33.84.84,0,0,0,.43-.79.25.25,0,0,0,.13-.34.82.82,0,0,0,.43-.79.24.24,0,0,0,.13-.33.81.81,0,0,0,.43-.79.24.24,0,0,0,.13-.34.83.83,0,0,0,.41-.78.28.28,0,0,0,.14-.38.72.72,0,0,0,.41-.74.36.36,0,0,0,.15-.42,1.43,1.43,0,0,0,.59-1.25l0,0a1.27,1.27,0,0,0,.57-1.18l0,0a1.26,1.26,0,0,0,.56-1.17l0,0a1.22,1.22,0,0,0,.55-1.15h0a1.22,1.22,0,0,0,.53-1.13v0a1.19,1.19,0,0,0,.51-1.09.25.25,0,0,0,.13-.35,1.56,1.56,0,0,0,.58-1.31l0,0a1.23,1.23,0,0,0,.55-1.17l0,0a1.18,1.18,0,0,0,.55-1.16h0a1.16,1.16,0,0,0,.51-1.13.24.24,0,0,0,.12-.35.79.79,0,0,0,.41-.78l.17-.52,0,0a1.24,1.24,0,0,0,.54-1.19v0a1.21,1.21,0,0,0,.51-1.17v0a2.09,2.09,0,0,0,.67-1.63l0,.05A1.21,1.21,0,0,0,462,58.9v0a1.23,1.23,0,0,0,.51-1.16.2.2,0,0,0,.1-.31,1.58,1.58,0,0,0,.56-1.36l0,0a1.21,1.21,0,0,0,.52-1.19h0a1.2,1.2,0,0,0,.49-1.11.34.34,0,0,0,.12-.42,1.41,1.41,0,0,0,.53-1.27v0a1.17,1.17,0,0,0,.49-1.13.32.32,0,0,0,.12-.4,1.41,1.41,0,0,0,.52-1.29h0a1.19,1.19,0,0,0,.48-1.13.36.36,0,0,0,.13-.42,1.38,1.38,0,0,0,.5-1.27h0a2.11,2.11,0,0,0,.63-1.66l0,0a1.17,1.17,0,0,0,.48-1.17.28.28,0,0,0,.11-.38,1.43,1.43,0,0,0,.5-1.31h0a2.07,2.07,0,0,0,.61-1.67l0,0c.33-.22.47-.41-.06-.53l-.06,0c-.58-.7-1.38-.59-2.16-.6l-.15-.12-.18.06a2.37,2.37,0,0,0-1.91-.5l-.15-.12-.19.06a2.35,2.35,0,0,0-1.91-.48.25.25,0,0,0-.37-.08,2.23,2.23,0,0,0-1.87-.48.42.42,0,0,0-.51-.1v0c-.46-.57-1.11-.51-1.74-.5a.44.44,0,0,0-.45-.18l.07.06a.44.44,0,0,0-.09-.41l0,0a7.85,7.85,0,0,0,1.79-2.22l-.07.06a.73.73,0,0,0,.62-.62l-.06,0a.74.74,0,0,0,.6-.64l0,.05a.7.7,0,0,0,.57-.57h-.05a.7.7,0,0,0,.6-.62l-.05,0a.74.74,0,0,0,.6-.63l-.05,0a.7.7,0,0,0,.6-.61l0,.05a.72.72,0,0,0,.58-.62h0a.63.63,0,0,0,.57-.58v0a.68.68,0,0,0,.57-.59h0a.64.64,0,0,0,.56-.58h0a.68.68,0,0,0,.56-.58h0a.66.66,0,0,0,.54-.58h0a.65.65,0,0,0,.54-.56v0a.57.57,0,0,0,.53-.55l0,0a.58.58,0,0,0,.5-.53l.05-.06a.54.54,0,0,0,.51-.51l.05-.05a7.51,7.51,0,0,0,2.41-2.6h0a.71.71,0,0,0,.61-.62L471,22a.74.74,0,0,0,.59-.65l-.06.06a.72.72,0,0,0,.62-.62l0,.05a.68.68,0,0,0,.55-.6l0,0a.73.73,0,0,0,.6-.62l0,.05a.72.72,0,0,0,.6-.61l-.05,0a.7.7,0,0,0,.58-.62l0,0a.7.7,0,0,0,.59-.6l0,0a.69.69,0,0,0,.58-.6l0,0a.73.73,0,0,0,.56-.59h0a.69.69,0,0,0,.57-.58h0a.66.66,0,0,0,.54-.58h0a.62.62,0,0,0,.54-.55v0a.61.61,0,0,0,.54-.56l0,0a.58.58,0,0,0,.5-.53l0,0a.56.56,0,0,0,.52-.53l0-.05a11.68,11.68,0,0,0,2.93-3.1v0a.73.73,0,0,0,.59-.64l0,.05a.68.68,0,0,0,.57-.57l0,0a.73.73,0,0,0,.59-.64l0,0a.69.69,0,0,0,.57-.58l0,0a.7.7,0,0,0,.6-.61h0a.62.62,0,0,0,.56-.58l0,0a.7.7,0,0,0,.59-.59l0,0a.71.71,0,0,0,.57-.6l0,0a.72.72,0,0,0,.57-.59h0a.64.64,0,0,0,.55-.57h0a.68.68,0,0,0,.54-.57v0a.59.59,0,0,0,.54-.55l0,0a.56.56,0,0,0,.52-.54l0,0a.58.58,0,0,0,.5-.53l.05,0a.53.53,0,0,0,.5-.51l.06-.07a.53.53,0,0,0,.47-.5l.09-.09a.5.5,0,0,0,.46-.47l.09-.09c.6-.5,1.19-.69,1.7.13v0a2.23,2.23,0,0,0,.53,1.82.34.34,0,0,0,.1.43,2,2,0,0,0,.5,1.69h0a2.23,2.23,0,0,0,.53,1.8.37.37,0,0,0,.1.45,1.42,1.42,0,0,0,.43,1.35.2.2,0,0,0,.08.32,2.19,2.19,0,0,0,.52,1.8.39.39,0,0,0,.1.46,1.41,1.41,0,0,0,.43,1.33.22.22,0,0,0,.08.34,2.1,2.1,0,0,0,.52,1.76.46.46,0,0,0,.1.5,1.34,1.34,0,0,0,.43,1.3.26.26,0,0,0,.08.37,2,2,0,0,0,.52,1.72v0a2.28,2.28,0,0,0,.54,1.84.29.29,0,0,0,.09.4,2,2,0,0,0,.51,1.71v0a2.28,2.28,0,0,0,.53,1.82.32.32,0,0,0,.09.41,2,2,0,0,0,.52,1.7h0a2.21,2.21,0,0,0,.53,1.81.35.35,0,0,0,.1.44,1.47,1.47,0,0,0,.44,1.36.19.19,0,0,0,.06.31,2.23,2.23,0,0,0,.53,1.8.39.39,0,0,0,.1.46,1.43,1.43,0,0,0,.43,1.35.2.2,0,0,0,.08.32,2.15,2.15,0,0,0,.52,1.78.43.43,0,0,0,.1.48,1.35,1.35,0,0,0,.43,1.3.26.26,0,0,0,.08.37,2,2,0,0,0,.51,1.72,2.25,2.25,0,0,0,.54,1.82.29.29,0,0,0,.08.39,2,2,0,0,0,.52,1.71v0a2.27,2.27,0,0,0,.52,1.82.33.33,0,0,0,.1.41,2,2,0,0,0,.52,1.71v0c-.06.75.41,1.84-1.08,1.66h0a3,3,0,0,0-2.24-.56h0a3,3,0,0,0-2.25-.55.4.4,0,0,0-.49-.11v0c-.47-.58-1.12-.51-1.76-.49l-.15-.12-.18.05a2.35,2.35,0,0,0-1.91-.48l-.17-.12-.2,0c-.91-.63-1.66-.78-1.88.63h0a1.2,1.2,0,0,0-.53,1.14v0a2,2,0,0,0-.7,1.56h0a1.26,1.26,0,0,0-.58,1.19l0,0a1.28,1.28,0,0,0-.57,1.18l0,0a1.25,1.25,0,0,0-.56,1.17l0,0a1.23,1.23,0,0,0-.56,1.16v0a1.25,1.25,0,0,0-.55,1.14h0a1.24,1.24,0,0,0-.55,1.13h0a1.23,1.23,0,0,0-.54,1.12v0a1.17,1.17,0,0,0-.54,1.07.22.22,0,0,0-.12.32.84.84,0,0,0-.42.81.46.46,0,0,0-.2.48l.05,0a.58.58,0,0,0-.41.66.44.44,0,0,0-.2.48l0,0a.58.58,0,0,0-.4.66.46.46,0,0,0-.2.49l0,0a1.29,1.29,0,0,0-.58,1.18l0,0A1.3,1.3,0,0,0,486,65l0,0a1.25,1.25,0,0,0-.6,1.17l0,0a1.13,1.13,0,0,0-.6,1.06l0,0a.57.57,0,0,0-.41.66.46.46,0,0,0-.2.48l.05,0a.57.57,0,0,0-.41.66.46.46,0,0,0-.2.48l.05,0a.58.58,0,0,0-.42.66.43.43,0,0,0-.21.46l.06,0a.64.64,0,0,0-.43.71l0,0a1.23,1.23,0,0,0-.56,1.08v0a1.22,1.22,0,0,0-.56,1.1h0a1.23,1.23,0,0,0-.58,1.11h0a1.25,1.25,0,0,0-.59,1.12v0a1.31,1.31,0,0,0-.6,1.14l0,0a1.29,1.29,0,0,0-.62,1.15l0-.05a1.28,1.28,0,0,0-.63,1.15l0,0a.59.59,0,0,0-.44.66l0,0a1.15,1.15,0,0,0-.57,1.06v0a1.23,1.23,0,0,0-.59,1.09h0a1.26,1.26,0,0,0-.61,1.12l0,0a1.14,1.14,0,0,0-.61,1.11l0,0a.64.64,0,0,0-.45.68l0,.05a1.18,1.18,0,0,0-.58,1.06h0a1.27,1.27,0,0,0-.61,1.09l0,0a1.27,1.27,0,0,0-.64,1.13l.05,0a.58.58,0,0,0-.45.64.43.43,0,0,0-.22.45l.07,0a.65.65,0,0,0-.47.69h0a1.23,1.23,0,0,0-.62,1.09l0,0a1.25,1.25,0,0,0-.65,1.13l.06-.07a.66.66,0,0,0-.47.68v0a1.22,1.22,0,0,0-.63,1.07l0,0a1.27,1.27,0,0,0-.65,1.11l.06-.06a.67.67,0,0,0-.48.68v0a1.26,1.26,0,0,0-.63,1.08l0,0a1.31,1.31,0,0,0-.67,1.11l.07-.06a.67.67,0,0,0-.49.68h0a1.19,1.19,0,0,0-.63,1.07l0,0a.64.64,0,0,0-.47.66l0,0a1.22,1.22,0,0,0-.64,1l0,0a1.25,1.25,0,0,0-.68,1.09l.06-.06a.69.69,0,0,0-.5.68h0a1.27,1.27,0,0,0-.67,1.07l.06,0a.68.68,0,0,0-.5.67h0a1.3,1.3,0,0,0-.68,1.06l.06,0a.66.66,0,0,0-.49.67h0a1.31,1.31,0,0,0-.68,1.07l.06,0a.66.66,0,0,0-.5.66h0a1.24,1.24,0,0,0-.68,1.08l.06-.06a.68.68,0,0,0-.52.66h0a1.3,1.3,0,0,0-.7,1.07l.07-.06a.72.72,0,0,0-.52.68v0a2.63,2.63,0,0,0-1.17,1.68l0,0a.64.64,0,0,0-.5.64l0,0a1.25,1.25,0,0,0-.69,1l.06-.06a.7.7,0,0,0-.53.66h0a2.58,2.58,0,0,0-1.18,1.61h0a.69.69,0,0,0-.53.65h0a2.65,2.65,0,0,0-1.2,1.6l0,0a.64.64,0,0,0-.53.61h0a.6.6,0,0,0-.49.6l0,0a1.2,1.2,0,0,0-.71,1l.06,0a.72.72,0,0,0-.55.66l0,0a.66.66,0,0,0-.52.61v0a2.68,2.68,0,0,0-1.24,1.61l0,0a.64.64,0,0,0-.53.61l0,0a.68.68,0,0,0-.54.61h0a.62.62,0,0,0-.5.58l0,0a1.2,1.2,0,0,0-.73,1l.06,0a.72.72,0,0,0-.58.65l.05,0a.7.7,0,0,0-.56.63h0a.6.6,0,0,0-.55.58h0a.67.67,0,0,0-.53.59h0a4.73,4.73,0,0,0-1.84,2.14l.06,0a.74.74,0,0,0-.59.64l.06,0a.69.69,0,0,0-.59.62l0,0a.72.72,0,0,0-.59.62l0,0a.68.68,0,0,0-.58.61l0,0a.71.71,0,0,0-.58.59l0,0a.7.7,0,0,0-.58.59l0,0a.68.68,0,0,0-.56.59h0a.68.68,0,0,0-.56.57h0a.64.64,0,0,0-.56.55h0a.62.62,0,0,0-.56.56h0a.65.65,0,0,0-.56.56h0a.7.7,0,0,0-.59.56h0a.67.67,0,0,0-.59.57l0,0a.7.7,0,0,0-.59.58l0,0a.69.69,0,0,0-.61.58l0,0a.7.7,0,0,0-.62.59l0-.05a.72.72,0,0,0-.63.59l.05,0a.71.71,0,0,0-.63.58l0,0a2.55,2.55,0,0,0-1.54,1.28l0,0a.6.6,0,0,0-.58.51h0a.66.66,0,0,0-.6.54l0,0a.7.7,0,0,0-.63.57l0-.06a2.71,2.71,0,0,0-1.61,1.24.62.62,0,0,0-.61.53v0a.69.69,0,0,0-.65.54l0-.05a1.27,1.27,0,0,0-1,.71.61.61,0,0,0-.62.51l0,0a2.64,2.64,0,0,0-1.68,1.16h0a.65.65,0,0,0-.65.51l.05,0a1.23,1.23,0,0,0-1.08.67h0a.64.64,0,0,0-.67.48l0-.05a1.2,1.2,0,0,0-1.09.67l0,0a1.24,1.24,0,0,0-1.08.62h0a.62.62,0,0,0-.67.43v0a.44.44,0,0,0-.46.21.56.56,0,0,0-.64.42h0a1.14,1.14,0,0,0-1.11.6l0,0a1.22,1.22,0,0,0-1.14.58h0a1.21,1.21,0,0,0-1.15.56l0,0a1.21,1.21,0,0,0-1.17.55l0,0a2.09,2.09,0,0,0-1.63.67h0a1.17,1.17,0,0,0-1.19.48v0a.44.44,0,0,0-.49.14,1.12,1.12,0,0,0-1.18.47l0,0c-.62,0-1.27,0-1.72.56v0a.4.4,0,0,0-.48.12,2.37,2.37,0,0,0-1.86.46.28.28,0,0,0-.39.09,5.35,5.35,0,0,0-2.95.52l-.22-.06-.19.1Z"/><path class="cls-1" d="M104.44,106l.13-.15-.07-.18a3.72,3.72,0,0,0,.51-2.48l.13-.13-.08-.16a2.37,2.37,0,0,0,.45-1.94.37.37,0,0,0,.07-.48,3.26,3.26,0,0,0,.5-2.33.34.34,0,0,0,.08-.45,3.27,3.27,0,0,0,.5-2.36.26.26,0,0,0,.07-.4,3.46,3.46,0,0,0,.51-2.41.2.2,0,0,0,.06-.34,2.33,2.33,0,0,0,.44-1.89c0-.29.08-.58.13-.87a2.37,2.37,0,0,0,.44-1.94.37.37,0,0,0,.08-.48,3.35,3.35,0,0,0,.5-2.33.33.33,0,0,0,.07-.45,3.32,3.32,0,0,0,.5-2.36.26.26,0,0,0,.07-.4,3.39,3.39,0,0,0,.51-2.4.22.22,0,0,0,.07-.36,2.3,2.3,0,0,0,.43-1.88c0-.29.09-.58.13-.87a2.32,2.32,0,0,0,.44-1.93.42.42,0,0,0,.08-.51,3.17,3.17,0,0,0,.5-2.3.34.34,0,0,0,.07-.46,3.31,3.31,0,0,0,.51-2.35.28.28,0,0,0,.07-.41,3.45,3.45,0,0,0,.51-2.4.22.22,0,0,0,.06-.36,3.59,3.59,0,0,0,.52-2.45l.12-.13-.07-.16a2.41,2.41,0,0,0,.44-1.94.42.42,0,0,0,.07-.51,3.17,3.17,0,0,0,.5-2.3.32.32,0,0,0,.08-.45,3.27,3.27,0,0,0,.5-2.36.29.29,0,0,0,.07-.42,3.29,3.29,0,0,0,.51-2.38.24.24,0,0,0,.07-.37c.58-.69.43-1.59.69-2.38H140.2c.05.36.09.72.14,1.07l-.13.15.07.17a2.36,2.36,0,0,0-.44,1.92.42.42,0,0,0-.07.51,3.21,3.21,0,0,0-.51,2.29.36.36,0,0,0-.07.47,3.28,3.28,0,0,0-.5,2.34.31.31,0,0,0-.07.43,3.34,3.34,0,0,0-.51,2.38.25.25,0,0,0-.07.39,3.49,3.49,0,0,0-.51,2.42l-.13.14.07.18a2.38,2.38,0,0,0-.43,1.91.44.44,0,0,0-.08.52,3.19,3.19,0,0,0-.5,2.29.38.38,0,0,0-.07.48,3.2,3.2,0,0,0-.5,2.33.3.3,0,0,0-.08.43,3.39,3.39,0,0,0-.5,2.38.24.24,0,0,0-.07.38,3.5,3.5,0,0,0-.51,2.42.21.21,0,0,0-.06.35,2.29,2.29,0,0,0-.44,1.89.44.44,0,0,0-.07.52,3.18,3.18,0,0,0-.5,2.28.41.41,0,0,0-.08.5,3.24,3.24,0,0,0-.5,2.31.31.31,0,0,0-.07.44,3.31,3.31,0,0,0-.5,2.37.26.26,0,0,0-.08.39,3.49,3.49,0,0,0-.5,2.42.22.22,0,0,0-.07.36,2.21,2.21,0,0,0-.43,1.87l-.08.53a3.23,3.23,0,0,0-.5,2.28.41.41,0,0,0-.07.5,3.15,3.15,0,0,0-.5,2.31.31.31,0,0,0-.08.44,3.4,3.4,0,0,0-.5,2.37.26.26,0,0,0-.07.4,3.46,3.46,0,0,0-.51,2.41.21.21,0,0,0-.06.35,2.26,2.26,0,0,0-.43,1.88c0,.29-.09.58-.14.88a2.37,2.37,0,0,0-.44,1.93.4.4,0,0,0-.08.49,3.25,3.25,0,0,0-.5,2.31.34.34,0,0,0-.07.46,3.25,3.25,0,0,0-.5,2.35.28.28,0,0,0-.08.41,3.43,3.43,0,0,0-.5,2.4.22.22,0,0,0-.07.36,3.58,3.58,0,0,0-.51,2.45l-.13.14.08.17c-.42.83-.83,1.46-2,1.45-7.07-.07-14.13,0-21.2-.05a6.49,6.49,0,0,1-1.35-.28v-.13a3.59,3.59,0,0,0,.52-2.43l.12-.14-.07-.18a2.37,2.37,0,0,0,.44-1.91l.13-.86a2.38,2.38,0,0,0,.44-2,.37.37,0,0,0,.08-.48,3.3,3.3,0,0,0,.5-2.33.31.31,0,0,0,.07-.43,3.32,3.32,0,0,0,.51-2.37.28.28,0,0,0,.06-.41A3.45,3.45,0,0,0,104.44,106Z"/><path class="cls-1" d="M438.32,59.1a2.34,2.34,0,0,0,.09,1.48,8.51,8.51,0,0,0,.49,4,2.58,2.58,0,0,0,.1,1.58c0,1.2-.19,2.42.45,3.53a2.55,2.55,0,0,0,.09,1.52,6.88,6.88,0,0,0,.46,3.59,3.89,3.89,0,0,0,.13,2,6.56,6.56,0,0,0,.45,3.47,2.56,2.56,0,0,0,.1,1.57c0,1.2-.2,2.42.45,3.53a2.63,2.63,0,0,0,.09,1.52,6.85,6.85,0,0,0,.46,3.58l0,1.37a1.45,1.45,0,0,0-.61,1.15l0,0a.62.62,0,0,0-.46.66l0,0a1.16,1.16,0,0,0-.63,1v0a1.25,1.25,0,0,0-.69,1.08l.06-.06a.66.66,0,0,0-.47.69h0a1.21,1.21,0,0,0-.66,1.07l0-.05a.62.62,0,0,0-.46.67l0,0a1.21,1.21,0,0,0-.64,1l0,0a1.25,1.25,0,0,0-.68,1.08l.05,0a.68.68,0,0,0-.46.7h0a1.24,1.24,0,0,0-.67,1.08l.05,0a.64.64,0,0,0-.47.67v0a1.19,1.19,0,0,0-.65,1.06l0,0a.59.59,0,0,0-.45.65l0,.06a1.18,1.18,0,0,0-.63,1v0a1.27,1.27,0,0,0-.68,1.09l.05-.06a.65.65,0,0,0-.46.69h0a1.21,1.21,0,0,0-.65,1.07l0,0a.62.62,0,0,0-.46.67l0,0a1.19,1.19,0,0,0-.64,1l0,0a1.24,1.24,0,0,0-.69,1.08l.06-.06a.66.66,0,0,0-.47.69h0a1.22,1.22,0,0,0-.67,1.08l.05,0a.62.62,0,0,0-.46.67l0,0a1.2,1.2,0,0,0-.64,1.06l0,0a2.62,2.62,0,0,0-1.1,1.72h0a1.33,1.33,0,0,0-.71,1l.08-.11-.94-1.17-.12-.86a3.18,3.18,0,0,0-.49-2.34.35.35,0,0,0-.05-.46,3.37,3.37,0,0,0-.49-2.4.28.28,0,0,0-.06-.41l-.06-.56a2.2,2.2,0,0,0-.43-1.88l-.12-.93a3.14,3.14,0,0,0-.48-2.31.38.38,0,0,0-.06-.49,3.27,3.27,0,0,0-.48-2.36.35.35,0,0,0-.06-.45A3.45,3.45,0,0,0,421.6,98l-.12-1a2.27,2.27,0,0,0-.43-1.9l-.12-.9a3.25,3.25,0,0,0-.48-2.33.35.35,0,0,0-.06-.47,3.26,3.26,0,0,0-.48-2.36.32.32,0,0,0-.06-.44,3,3,0,0,0-.48-2.33l0,0c0-.36-.11-.71-.16-1.07a2.33,2.33,0,0,0-.43-1.94l-.11-.87a3.22,3.22,0,0,0-.49-2.34.38.38,0,0,0-.06-.47,3.31,3.31,0,0,0-.48-2.39.28.28,0,0,0-.06-.41,3.45,3.45,0,0,0-.49-2.45l-.12-.92a2.31,2.31,0,0,0-.44-2c0-.28-.07-.57-.11-.86a3.22,3.22,0,0,0-.48-2.34.34.34,0,0,0-.06-.46,3.41,3.41,0,0,0-.48-2.41c0-.32-.08-.64-.13-1a2.24,2.24,0,0,0-.42-1.9l-.12-.91a3.15,3.15,0,0,0-.49-2.31.39.39,0,0,0,0-.49,3.31,3.31,0,0,0-.49-2.37.31.31,0,0,0-.06-.43,3.36,3.36,0,0,0-.49-2.43.23.23,0,0,0-.05-.37l-.07-.57a2.26,2.26,0,0,0-.43-1.93l-.08-.87a1,1,0,0,0,.17-.5.34.34,0,0,0,.41-.1l.54,0,19.86.11c1.21,0,2.42.08,3.63.12,0,.32.1.64.16,1,0,1.19-.2,2.41.45,3.51a2.61,2.61,0,0,0,.09,1.54A6.82,6.82,0,0,0,438.32,59.1Z"/><path class="cls-3" d="M113,23a.34.34,0,0,0,.4-.19.52.52,0,0,0,.56-.41h0a.93.93,0,0,0,.79-.51.25.25,0,0,0,.33-.16.55.55,0,0,0,.6-.44l0,0a1.21,1.21,0,0,0,1-.63l0,0a.62.62,0,0,0,.65-.47l0,0a1.2,1.2,0,0,0,1.06-.64l0,0a.79.79,0,0,0,.73-.48.37.37,0,0,0,.41-.2.52.52,0,0,0,.56-.41h0A.89.89,0,0,0,121,18a.24.24,0,0,0,.33-.16.54.54,0,0,0,.6-.44l0,0a1.19,1.19,0,0,0,1-.63l.06,0a.62.62,0,0,0,.64-.46l0,0a1.61,1.61,0,0,1,1.64.49h0a1.23,1.23,0,0,0,.57,1.13h0a1.27,1.27,0,0,0,.57,1.14v0a1.26,1.26,0,0,0,.57,1.14v0a1.25,1.25,0,0,0,.57,1.14h0a1.22,1.22,0,0,0,.56,1.13h0a1.24,1.24,0,0,0,.56,1.14v0a1.22,1.22,0,0,0,.57,1.14v0a1.22,1.22,0,0,0,.57,1.14h0a1.24,1.24,0,0,0,.57,1.13h0c.14.7.25,1.45,1.16.57h0A.7.7,0,0,0,132,27l0,0a.7.7,0,0,0,.64-.56l-.05.06a1.19,1.19,0,0,0,1-.72l.06-.05a.59.59,0,0,0,.57-.48h0a.65.65,0,0,0,.6-.53l0,0a.71.71,0,0,0,.64-.55l0,0a1.19,1.19,0,0,0,1-.71l.09-.06A.55.55,0,0,0,137,23l0,0a.67.67,0,0,0,.61-.52l0,0a.69.69,0,0,0,.63-.55l0,0a1,1,0,0,0,.77-.58.28.28,0,0,0,.33-.22.45.45,0,0,0,.48-.42l.05,0a.6.6,0,0,0,.59-.5h0a.67.67,0,0,0,.62-.53l0,0a.71.71,0,0,0,.65-.56l0,.06a1.18,1.18,0,0,0,1-.72l.06,0a.58.58,0,0,0,.57-.48h0a.67.67,0,0,0,.61-.53l0,0a.7.7,0,0,0,.64-.55l0,.05a1.21,1.21,0,0,0,1-.71l.09-.07a.54.54,0,0,0,.54-.46l0,0a.65.65,0,0,0,.61-.51l0,0a.69.69,0,0,0,.63-.55l-.05,0a1,1,0,0,0,.79-.58.27.27,0,0,0,.31-.22.47.47,0,0,0,.49-.42l.05,0a.64.64,0,0,0,.59-.5h0a.69.69,0,0,0,.62-.55l0,0a.7.7,0,0,0,.65-.56l-.05.06a1.17,1.17,0,0,0,1-.72l.06,0a.59.59,0,0,0,.58-.48h0a.67.67,0,0,0,.61-.53l0,0a.7.7,0,0,0,.64-.56l-.05.06a1.2,1.2,0,0,0,1-.72l.08-.05a.57.57,0,0,0,.55-.47l0,0a.65.65,0,0,0,.6-.52l0,0a.71.71,0,0,0,.64-.55l-.06,0a1,1,0,0,0,.79-.59.26.26,0,0,0,.31-.21.47.47,0,0,0,.49-.43l.05,0a.64.64,0,0,0,.59-.5h0a.68.68,0,0,0,.62-.55l0,0a.72.72,0,0,0,.66-.56l-.06.06a1.2,1.2,0,0,0,1-.73l.06,0a.58.58,0,0,0,.58-.48h0a.66.66,0,0,0,.61-.53l0,0a.86.86,0,0,0,.47-.11l.61.59a1,1,0,0,0-.13.5l.06,0a.7.7,0,0,0-.55.64l0,0a.67.67,0,0,0-.54.62h0a2.59,2.59,0,0,0-1.25,1.61l.06,0a.72.72,0,0,0-.56.65l0,0a.67.67,0,0,0-.54.62h0a.6.6,0,0,0-.5.59l0,0a1.22,1.22,0,0,0-.74,1l.06-.06a.71.71,0,0,0-.56.65l0,0a.7.7,0,0,0-.55.63h0a.64.64,0,0,0-.51.6l0,0a2.59,2.59,0,0,0-1.24,1.6l.05-.05a.68.68,0,0,0-.55.64l0,0a.66.66,0,0,0-.52.61h0a.56.56,0,0,0-.48.57l0,.06a1.22,1.22,0,0,0-.73,1l.06,0a.71.71,0,0,0-.56.65l0,0a.69.69,0,0,0-.54.62h0a2.61,2.61,0,0,0-1.26,1.61l.06,0a.71.71,0,0,0-.56.65l0,0a.68.68,0,0,0-.54.63h0a.63.63,0,0,0-.51.6l0,0a2.54,2.54,0,0,0-1.24,1.59l.05-.05a.71.71,0,0,0-.56.64l0,0a.67.67,0,0,0-.53.6v0a.56.56,0,0,0-.48.56l0,.07a1.2,1.2,0,0,0-.72,1l.06-.05a.72.72,0,0,0-.56.65l0,0a.68.68,0,0,0-.53.62h0a.6.6,0,0,0-.49.58l0,.06a1.19,1.19,0,0,0-.73,1l.06-.06a.7.7,0,0,0-.56.65l0,0a.69.69,0,0,0-.55.63v0a.67.67,0,0,0-.51.6l0,0a2.66,2.66,0,0,0-1.24,1.6l0-.05a.7.7,0,0,0-.55.64l0,0a.66.66,0,0,0-.52.6v0a3,3,0,0,0-1.31,1.61l-9.65,11.48L118.07,31.9a3,3,0,0,0-1.28-1.63h0a.66.66,0,0,0-.53-.61l0,0a.71.71,0,0,0-.55-.66l.06.06a1.18,1.18,0,0,0-.72-1l0-.06a.59.59,0,0,0-.49-.59h0a.67.67,0,0,0-.54-.63l0,0a.72.72,0,0,0-.56-.66l.06.06a1.18,1.18,0,0,0-.72-1l0-.05a.6.6,0,0,0-.5-.59h0v-1.1h0A.86.86,0,0,0,113,23Z"/><path class="cls-4" d="M231,137.51h2.33a.83.83,0,0,0,.77.4.29.29,0,0,0,.35.15l.73.75a.25.25,0,0,0,.19.31c.14.44.28.26.41,0h0a.66.66,0,0,0,.59-.52h0a.9.9,0,0,0,.71-.54.39.39,0,0,0,.42-.15.8.8,0,0,0,.79-.39h2.39a1.85,1.85,0,0,0,1.26.59l0-.05a.77.77,0,0,0,.61.59l0,0a1.68,1.68,0,0,0,.63,1.08h0c0,1.68,0,3.36.05,5,0,.33-.08.65-.11,1a4.72,4.72,0,0,0-.48,3,.39.39,0,0,0-.06.48l-.6,1.75,0,0c-1.94.36-1.63-1.05-1.7-2.16a.44.44,0,0,0,.06-.49,4.64,4.64,0,0,0,.49-2.88c0-.32.07-.64.1-1a3.13,3.13,0,0,0-.07-3.49l0,0a.51.51,0,0,0-.52-.55l0,0a1.47,1.47,0,0,0-2.25,0h0a1.26,1.26,0,0,0-1.24,1.07l0,0a.63.63,0,0,0-.45.7v0a1.68,1.68,0,0,0-.51,1.65c0,.32-.08.64-.11,1a4.78,4.78,0,0,0-.49,3,.35.35,0,0,0-.06.45c-.58.88-.44,1.92-.65,2.88l.09-.09c-1.22.2-2,0-1.74-1.56a11.47,11.47,0,0,0,.06-1.66c0-.31.07-.61.1-.91a3.47,3.47,0,0,0,.44-2.46c0-.32.07-.65.11-1a1.07,1.07,0,0,0,0-1.46.25.25,0,0,0-.06-.37,1.06,1.06,0,0,0-1.06-1.23v0a1.15,1.15,0,0,0-1.82,0l0,0a1,1,0,0,0-1.07.65h0a.49.49,0,0,0-.45.54.31.31,0,0,0-.17.38,1.33,1.33,0,0,0-.48,1.32.28.28,0,0,0-.07.39,3.32,3.32,0,0,0-.44,2.4c0,.34-.07.67-.11,1a4.69,4.69,0,0,0-.47,2.92.48.48,0,0,0-.08.49,2.26,2.26,0,0,1-2.17.51l.08.06a.69.69,0,0,0-.15-.48c0-.34.05-.68.07-1a4.7,4.7,0,0,0,.48-2.9c0-.32.07-.63.1-1a3.42,3.42,0,0,0,.43-2.42l.12-1a4.83,4.83,0,0,0,.47-2.92c0-.29.07-.59.1-.88l.72-.75h.77c.52.06.44,1.33,1.32.65l.52-.24A.82.82,0,0,0,231,137.51Z"/><path class="cls-4" d="M247.58,152a.44.44,0,0,0-.06.49,6.05,6.05,0,0,0-.57,2.87l0,0a2.67,2.67,0,0,1-2.19-.2V155a3.41,3.41,0,0,0,.43-2.4c0-.34.07-.69.11-1a4.66,4.66,0,0,0,.48-2.89c0-.32.07-.63.11-.95a3.45,3.45,0,0,0,.43-2.41c0-.34.07-.68.11-1a4.82,4.82,0,0,0,.48-2.91c0-.31.07-.62.1-.93a4,4,0,0,0,.49-2.45h0l.72-.51.76,0c.35.45.43,1.56,1.37.55h0a1.67,1.67,0,0,0,1.28-.54H254a.84.84,0,0,0,.8.41.31.31,0,0,0,.37.15,1,1,0,0,0,.73.58l-.05-.05a1,1,0,0,0,.59.72.33.33,0,0,0,.18.38.73.73,0,0,0,.39.7.37.37,0,0,0,.1.42,31.63,31.63,0,0,1-.07,5.59v0a1.27,1.27,0,0,0-.48,1.13.27.27,0,0,0-.13.35.92.92,0,0,0-.49.78h0l-1.7,1.66h0a1.37,1.37,0,0,0-1.13.55h0l-3.32-.05,0,0a1.4,1.4,0,0,0-1.11-.65h0c-.39-.7-.83-1.05-1.11,0A8.33,8.33,0,0,0,247.58,152Zm7.8-8.08c.07-2.38-.84-3.86-2.39-4.17s-3.05.69-3.89,2.49a7.25,7.25,0,0,0-.46,3.82,2.6,2.6,0,0,0,1.87,2.5,3.08,3.08,0,0,0,3.11-.66A5.86,5.86,0,0,0,255.38,143.94Z"/><path class="cls-5" d="M293.52,144.18c0-.33.07-.65.11-1a2.78,2.78,0,0,0,.53-1.83v0a1.39,1.39,0,0,0,.57-1.14v0a.58.58,0,0,0,.43-.57.24.24,0,0,0,.18-.31l.77-.76a.26.26,0,0,0,.31-.19A.56.56,0,0,0,297,138h0a1.66,1.66,0,0,0,1.28-.53h2.4a.8.8,0,0,0,.77.38.41.41,0,0,0,.42.16.92.92,0,0,0,.7.58l0,0c.07.21.12.48.42.38.08,0,.09-.27.13-.42a.44.44,0,0,0,.09-.46l.73-.61h.8l.67.52,0,1a4.74,4.74,0,0,0-.47,2.94.46.46,0,0,0-.06.5,4.58,4.58,0,0,0-.48,2.86c0,.33-.07.67-.11,1a4.73,4.73,0,0,0-.48,2.93.48.48,0,0,0-.06.51,1.72,1.72,0,0,1-2.18,1.07l.07,0c-.66-1.93-1.21,0-1.82.05h0l-3.31-.07,0,0a4.16,4.16,0,0,0-1.67-1.2l.07.07a1.41,1.41,0,0,0-.69-1.08v0a2.64,2.64,0,0,0-.59-1.72.52.52,0,0,0-.06-.51C293.53,145.67,293.53,144.92,293.52,144.18Zm2.17.56c0,2.43.68,3.6,2.18,3.92s3.14-.49,4-2.32a6.26,6.26,0,0,0,.54-4.06,3,3,0,0,0-2-2.44,3.09,3.09,0,0,0-3.26,1A5.39,5.39,0,0,0,295.69,144.74Z"/><path class="cls-5" d="M337.35,141.34a.21.21,0,0,0,.31.1.92.92,0,0,0,.82.46h0a1.46,1.46,0,0,0,1,.71l-.07-.07a1.6,1.6,0,0,0,.71,1l0,0a3.72,3.72,0,0,0,.47,1.88.57.57,0,0,0,0,.71,3.12,3.12,0,0,0-.51,1.9h0a1.48,1.48,0,0,0-.65,1.09l0,0a.7.7,0,0,0-.56.58l0,0a.72.72,0,0,0-.65.56l0-.06a2.61,2.61,0,0,0-1.57.7h0l-3.91,0-.17-.13-.21,0a1.59,1.59,0,0,0-1.29-.54h0a1.34,1.34,0,0,0-1.08-.68l.06.09a3.82,3.82,0,0,1-.14-2.17h0l1.07-.44-.06-.08a.71.71,0,0,0,.65.56l0,0a.5.5,0,0,0,.59.42.42.42,0,0,0,.45.16,1.17,1.17,0,0,0,1.24.43l1.14,0,1.14-.09a.68.68,0,0,0,.73-.38.31.31,0,0,0,.37-.19.38.38,0,0,0,.44-.44.27.27,0,0,0,.19-.35,1.55,1.55,0,0,0-.08-2.4l0,0c0-.34-.18-.51-.52-.49a.45.45,0,0,0-.47-.23v0c-.26-.49-.72-.52-1.19-.53l0,0a1.16,1.16,0,0,0-1.17-.5h0a1.38,1.38,0,0,0-1.1-.58h0a.61.61,0,0,0-.59-.49l0,0a.64.64,0,0,0-.52-.55v0a.84.84,0,0,0-.48-.72.35.35,0,0,0-.11-.42l0-3.35a.24.24,0,0,0,.09-.34.85.85,0,0,0,.42-.77.23.23,0,0,0,.14-.32,1,1,0,0,0,.61-.76l-.06.06a1,1,0,0,0,.75-.61A.22.22,0,0,0,334,134a.76.76,0,0,0,.74-.42l.21,0,.18-.12,3.9-.07.89.18a.85.85,0,0,0,.81.42.21.21,0,0,0,.3.12c.51.68.27,1.43.22,2.17l0,0-1,.42.05.09a.64.64,0,0,0-.67-.48h0a1.61,1.61,0,0,0-1.69-.54,2.48,2.48,0,0,0-1.7,0,1,1,0,0,0-1.19.47l0,0a.66.66,0,0,0-.64.57l0-.05a.61.61,0,0,0-.46.69h0a1.1,1.1,0,0,0,0,1.72l0,0a1.2,1.2,0,0,0,1.13,1.2l0,0a.51.51,0,0,0,.63.4.48.48,0,0,0,.49.14A1.28,1.28,0,0,0,337.35,141.34Z"/><path class="cls-5" d="M208.32,138.93a.62.62,0,0,0,0-.73,3.23,3.23,0,0,0,.49-1.89h0a1.56,1.56,0,0,0,.63-1.09l0,0a.74.74,0,0,0,.56-.59h0a.76.76,0,0,0,.62-.55l-.05,0a1.61,1.61,0,0,0,1.19-.6.52.52,0,0,0,.49-.11h3.89a.56.56,0,0,0,.51.1,1.5,1.5,0,0,0,1.18.56h0l.59.54h0l0,1.1v0a1.74,1.74,0,0,0-.66,1.1l0-.07a1,1,0,0,0-.43,0l0,0a.57.57,0,0,0-.64-.42.28.28,0,0,0-.35-.16,1.28,1.28,0,0,0-1.34-.45,2.58,2.58,0,0,0-1.69,0,1.4,1.4,0,0,0-1.6.58l-.07,0c-.31,0-.48.15-.48.47a.26.26,0,0,0-.17.33,1.65,1.65,0,0,0,.08,2.48h0a.52.52,0,0,0,.56.51l.05,0a1,1,0,0,0,1.05.54.3.3,0,0,0,.38.11.72.72,0,0,0,.74.38l.52.14a1.48,1.48,0,0,0,1.16.59l0,0a.71.71,0,0,0,.62.5l0,0a.66.66,0,0,0,.53.54v0a.9.9,0,0,0,.49.74.34.34,0,0,0,.1.4l-.06,3.35h0a1.48,1.48,0,0,0-.54,1.13h0l-1.7,1.65h0a1.36,1.36,0,0,0-1.15.54h-4.41a1.24,1.24,0,0,0-1.15-.5h0a1.37,1.37,0,0,0-1.06-.64l0,0a.79.79,0,0,0-.59-.6l0,0a1.06,1.06,0,0,0-.11-.52.4.4,0,0,0,.08-.43,1.65,1.65,0,0,0,.61-1.22l-.05.07a2.09,2.09,0,0,0,.5-.08h0l.54.36a.39.39,0,0,0,.39.26.77.77,0,0,0,.77.46.23.23,0,0,0,.32.11.74.74,0,0,0,.79.36,3.7,3.7,0,0,0,2.28.05,1,1,0,0,0,1.14-.46h0a.66.66,0,0,0,.66-.54l-.05.05A.6.6,0,0,0,215,147a.25.25,0,0,0,.1-.37.87.87,0,0,0,0-1.35v0a1.15,1.15,0,0,0-1.12-1.17h0a1.1,1.1,0,0,0-1.15-.53h0a2.11,2.11,0,0,0-1.66-.65l0,0a1.32,1.32,0,0,0-1.12-.65l.06.07a.73.73,0,0,0-.64-.58l.05.06a1.54,1.54,0,0,0-.69-1l0,0A3.86,3.86,0,0,0,208.32,138.93Z"/><path class="cls-5" d="M344.81,145.3a1,1,0,0,0-.09,1.13,1,1,0,0,0,.5,1.09h0a.54.54,0,0,0,.54.55h0a.92.92,0,0,0,1.09.49l1.15,0a1.17,1.17,0,0,0,1.29-.43.36.36,0,0,0,.4-.19c.31,0,.46-.17.55-.44h0l1.09.6v0l-.12,1.58,0,0a1.31,1.31,0,0,0-1,.69h0a1.39,1.39,0,0,0-1.13.53h-3.34a1.44,1.44,0,0,0-1.12-.55h0a.64.64,0,0,0-.59-.5l-.05,0a.63.63,0,0,0-.49-.55l0,0a.89.89,0,0,0-.49-.75.28.28,0,0,0-.12-.37,1.53,1.53,0,0,0-.43-1.3l0-3.08a2.51,2.51,0,0,0,.45-1.78.44.44,0,0,0,.12-.46,1.54,1.54,0,0,0,.58-1.22l0,.05a.7.7,0,0,0,.47-.64l0-.06.46-.51.09-.1a.57.57,0,0,0,.51-.46l.06,0a.64.64,0,0,0,.63-.46l0,0a1.69,1.69,0,0,0,1.29-.54h2.44a.76.76,0,0,0,.74.37l.52.2,0,0a.74.74,0,0,0,.63.53h0a.78.78,0,0,0,.55.6l0,0a1.49,1.49,0,0,0,.61,1.1h0a2.91,2.91,0,0,0,.5,1.86c0,.79,0,1.57,0,2.35-1,.7-2.1.4-3.16.5C348.19,145.12,346.45,144.53,344.81,145.3Zm.06-2.56a1.28,1.28,0,0,0,1.13.42c1.21,0,2.42.05,3.62,0s1.58-.65,1.12-1.81a2.76,2.76,0,0,0-4.19-1.18A3.67,3.67,0,0,0,344.87,142.74Z"/><path class="cls-5" d="M271.49,150.83l-.21,0-.16.12-3.34-.1,0,0a1.39,1.39,0,0,0-1.13-.61l0,0a.73.73,0,0,0-.62-.57l0,0a.75.75,0,0,0-.56-.64l.06.06A1.7,1.7,0,0,0,265,148a.4.4,0,0,0-.1-.44c0-1.67,0-3.35,0-5a.42.42,0,0,0,.09-.45,1.47,1.47,0,0,0,.51-1.24h0a1.43,1.43,0,0,0,.65-1.1l-.05,0a.74.74,0,0,0,.55-.62h0a.75.75,0,0,0,.59-.57l0,0a.93.93,0,0,0,.74-.54.32.32,0,0,0,.38-.14,1.5,1.5,0,0,0,1.19-.45h2.05a1.69,1.69,0,0,0,1.23.52h0l.53.41.71.73a.58.58,0,0,0,.42.58v0A1.63,1.63,0,0,0,275,141a.31.31,0,0,0,.08.39l0,1.11c0,2.42,0,2.37-2.41,2.48-1.83.08-3.68-.37-5.47.3h0c-.85.6-.47,1.18,0,1.77v0a.87.87,0,0,0,.61.94.3.3,0,0,0,.34.24.7.7,0,0,0,.76.39,2.67,2.67,0,0,0,1.72,0,1,1,0,0,0,1.09-.47h0a.62.62,0,0,0,.64-.51l-.05.06h1.05l-.06-.08a1.82,1.82,0,0,0,.59,1.31v.1l-.54.78,0,0a.71.71,0,0,0-.64.55l.06-.06A1.64,1.64,0,0,0,271.49,150.83Zm1.81-7.92c-.8-2.61-1.38-3.22-2.85-3.25a3.45,3.45,0,0,0-3.17,2.3c-.2.61-.14,1.16.65,1.17A21.32,21.32,0,0,0,273.3,142.91Z"/><path class="cls-5" d="M390.11,147.93a.31.31,0,0,0,.34.24.7.7,0,0,0,.77.39,2.7,2.7,0,0,0,1.71,0,1,1,0,0,0,1.09-.47h0a.64.64,0,0,0,.65-.51l-.05.06h1l-.05-.07a1.77,1.77,0,0,0,.58,1.29V149l-.54.76,0,0a.72.72,0,0,0-.65.53l.06-.05a1.65,1.65,0,0,0-1.27.61l-.2,0-.17.12-3.34-.1,0,0a1.36,1.36,0,0,0-1.14-.61l.05,0a.73.73,0,0,0-.62-.57l0,0a.77.77,0,0,0-.56-.64l.05.06a1.64,1.64,0,0,0-.62-1.21.41.41,0,0,0-.11-.44c0-1.67,0-3.35,0-5a.38.38,0,0,0,.08-.44,1.4,1.4,0,0,0,.52-1.25,1.45,1.45,0,0,0,.64-1.09l-.05,0a.76.76,0,0,0,.56-.62h0a.74.74,0,0,0,.59-.57l0,0a1,1,0,0,0,.74-.55.32.32,0,0,0,.38-.14,1.46,1.46,0,0,0,1.18-.45l2.05,0a1.64,1.64,0,0,0,1.24.5h0a.59.59,0,0,0,.56.43.45.45,0,0,0,.44.29l-.05-.05a.47.47,0,0,0,.27.45.57.57,0,0,0,.44.59l0,0a1.65,1.65,0,0,0,.54,1.27.32.32,0,0,0,.08.41l0,1.11c0,2.42,0,2.37-2.42,2.48-1.82.09-3.68-.37-5.46.3h0c-.84.6-.45,1.18,0,1.77l0,0A.88.88,0,0,0,390.11,147.93Zm-.49-5a18.75,18.75,0,0,0,4.67.16c1.33,0,1.59-.55,1-1.76a2.65,2.65,0,0,0-2.89-1.7C390.89,139.83,390.09,140.75,389.62,143Z"/><path class="cls-4" d="M282.32,145.86a.42.42,0,0,0,.05-.49,4.62,4.62,0,0,0,.49-2.87c0-.32.07-.65.1-1a3.4,3.4,0,0,0,.44-2.39c0-.35.07-.7.1-1a4.64,4.64,0,0,0,.49-2.9l.1-.92.51-.77c2.37,0,4.74,0,7.11,0a3.62,3.62,0,0,1,2.37.38,2.21,2.21,0,0,1-2.5,1.9c-1.77,0-3.66-.62-5.36.46h0a2.88,2.88,0,0,0-.45,2.28c0,.33-.07.67-.11,1-.28.62-.79,1.23,0,1.83h0c1.31.66,2.72.18,4.07.32.79.08,1.71-.23,2.17.77,0,.28-.05.56-.08.84-.89.66-1.93.42-2.92.51-1.25.11-2.56-.36-3.75.34l0,0c-.76.37-.51,1-.49,1.65,0,.34-.07.67-.11,1a4.77,4.77,0,0,0-.48,2.92.48.48,0,0,0-.07.49,2.37,2.37,0,0,1-2.18.54l.07.06c-.05-.36-.11-.71-.16-1.07s.07-.65.11-1A4.79,4.79,0,0,0,282.32,145.86Z"/><path class="cls-5" d="M368.81,144.73l-.09.94a.59.59,0,0,0,0,.93.24.24,0,0,0,0,.37l.13.57c0,.34.13.5.45.54h0a.86.86,0,0,0,1.08.49H371a1,1,0,0,0,1.17-.43l0,0a.7.7,0,0,0,.68-.53l-.05,0a.7.7,0,0,0,.56-.66l0,0a.57.57,0,0,0,.41-.64.45.45,0,0,0,.13-.48,1.86,1.86,0,0,0,.45-1.76c0-.35.07-.7.11-1a4.7,4.7,0,0,0,.48-2.9c0-.32.07-.64.11-1l.64-1.78h.06l1.25,0c.42.68.17,1.46.3,2.18,0,.33-.08.67-.11,1a4.74,4.74,0,0,0-.48,2.93c0,.34-.09.67-.13,1l0,.06a3,3,0,0,0-.44,2.32c0,.33-.07.66-.11,1-.59.88-.43,1.93-.64,2.89l.08-.09c-.69,0-1.43.33-1.87-.61-.15-.32-.64-.14-.87.21a.64.64,0,0,0-.67.44v0a.46.46,0,0,0-.48.14l-2.79,0h0a1.52,1.52,0,0,0-1.09-.63l.05,0a.76.76,0,0,0-.59-.62l.06.06a1.46,1.46,0,0,0-.6-1.17l0,0a.46.46,0,0,0-.14-.48c0-1.12,0-2.24,0-3.36,0-.3.07-.6.11-.9a3.47,3.47,0,0,0,.43-2.46c0-.33.08-.65.11-1,.71-.84.13-2.22,1.21-2.91h.77c.76,1.05,0,2.23.26,3.33l-.05.56a.28.28,0,0,0,0,.4A4.82,4.82,0,0,0,368.81,144.73Z"/><path class="cls-5" d="M306.45,148.11l.94-.5a.78.78,0,0,0,.77.48h0a1,1,0,0,0,1.09.46,3.43,3.43,0,0,0,2.28,0,.53.53,0,0,0,.65-.38l0,0a.63.63,0,0,0,.56-.65l0,0c.48-.4.48-.8,0-1.19h0a.49.49,0,0,0-.57-.5l-.15-.13h-.2a2.32,2.32,0,0,0-1.87-.56l0,0a1.3,1.3,0,0,0-1.16-.55l0,0a.73.73,0,0,0-.6-.52l0,0a.76.76,0,0,0-.52-.62l0,0c0-1.11-.08-2.22-.11-3.33a.31.31,0,0,0,.1-.39.92.92,0,0,0,.49-.75v0a.71.71,0,0,0,.53-.55l0,0a.71.71,0,0,0,.63-.49l0,0a1.78,1.78,0,0,0,1.34-.54h2.89a1.71,1.71,0,0,0,1.34.52l0,0,.62.49,0,0v1.12a.25.25,0,0,0-.1.35,2,2,0,0,1-1.62.22h0a2.64,2.64,0,0,0-3.37,0h0a.56.56,0,0,0-.57.57h0c-.58.44-.55.91-.05,1.4a.39.39,0,0,0,.41.38.72.72,0,0,0,.78.4l.89.17a1.6,1.6,0,0,0,1.36.5h0a1.58,1.58,0,0,0,1.08.67l-.07-.07a1.82,1.82,0,0,0,.69,1.06h0c0,.93,0,1.87,0,2.8a.35.35,0,0,0-.1.41l-1.62,1.85a1.43,1.43,0,0,0-1.13.54h0l-3.89,0,0,0a1.25,1.25,0,0,0-1.15-.52h0l-1.05-.82v-.09A1.87,1.87,0,0,0,306.45,148.11Z"/><path class="cls-6" d="M359.39,137.5h2.47a1.79,1.79,0,0,0,1.29.56l0,0a.75.75,0,0,0,.63.53h0a.77.77,0,0,0,.55.59l0,0a1,1,0,0,0,.52.79.2.2,0,0,0,0,.32.74.74,0,0,0-.11.48l.06-.05a1.49,1.49,0,0,0-1,.72l-1.05-.19.07.06a.46.46,0,0,0-.28-.45.9.9,0,0,0-.94-.67v0a1.57,1.57,0,0,0-2.34,0h0a1,1,0,0,0-1,.67,1.1,1.1,0,0,0-.71,1l0,0a1.1,1.1,0,0,0-.51,1.18.21.21,0,0,0-.07.34,3,3,0,0,0,0,3.25.22.22,0,0,0,.09.34.62.62,0,0,0,.45.69l-.05,0a.71.71,0,0,0,.64.59l0,0a.51.51,0,0,0,.64.39,2.49,2.49,0,0,0,1.68,0,.51.51,0,0,0,.63-.39v0l.5-.26a.37.37,0,0,0,.41-.4.47.47,0,0,0,.3-.42H363a.73.73,0,0,0,.59.54l0-.06c0,.51,0,1,0,1.51l.06,0a.74.74,0,0,0-.58.64l0-.05a1.52,1.52,0,0,0-1,.7.92.92,0,0,0-.82.45l-.18,0-.14.12-3.33-.08,0,0a1.35,1.35,0,0,0-1.13-.61l.05.05a.75.75,0,0,0-.62-.58l0,0a.74.74,0,0,0-.58-.64l.07.07a1.77,1.77,0,0,0-.63-1.25.31.31,0,0,0-.11-.39l0-5a.24.24,0,0,0,.08-.35,1.62,1.62,0,0,0,.54-1.32l0,0a.55.55,0,0,0,.41-.6.31.31,0,0,0,.19-.36,1,1,0,0,0,.58-.74l0,.05a.79.79,0,0,0,.62-.6l-.06.06a1.54,1.54,0,0,0,1.06-.67h0A1.62,1.62,0,0,0,359.39,137.5Z"/><path class="cls-7" d="M320.54,143a.42.42,0,0,0-.06.48,4.63,4.63,0,0,0-.48,2.88,2.14,2.14,0,0,0,.06,1.7c0,.34.12.49.46.45a1.21,1.21,0,0,0,1.11,0l1.12.12v0a2.27,2.27,0,0,1-.61,2.18l0,0-2.76.07h0a1.55,1.55,0,0,0-1-.7l.07.08a1.93,1.93,0,0,0-.64-1.25l-.14-.93c0-.37,0-.74,0-1.1s.07-.67.1-1a4.77,4.77,0,0,0,.48-2.92.48.48,0,0,0,.06-.51c.8-2.49.8-2.49-1.1-3l0-1c.25-.37.49-.75.74-1.13l.92-.09c.64-.14.54-.62.48-1.08l.12-1,.71-.65H321l.72,1.07c0,.19-.05.38-.07.57a.21.21,0,0,0-.05.34c-.23.26-.48.51.08.67a1.1,1.1,0,0,0,1.12.14l.9,0a3.37,3.37,0,0,1,.16,2.17l.05,0c-.91.37-2.06-.41-2.83.59h0A4.24,4.24,0,0,0,320.54,143Z"/><path class="cls-8" d="M259.29,148.11c0-.31.07-.62.11-.94a3.42,3.42,0,0,0,.43-2.42c0-.34.07-.68.11-1a4.71,4.71,0,0,0,.48-2.93c0-.3.07-.6.11-.91a3.55,3.55,0,0,0,.43-2.45c0-.33.07-.66.11-1a4.82,4.82,0,0,0,.48-2.94.43.43,0,0,0,.06-.46l.57-.66,1.49,0c.06.35.13.71.19,1.06s-.07.6-.1.9a3.54,3.54,0,0,0-.44,2.46c0,.33-.07.66-.1,1a4.86,4.86,0,0,0-.49,3,.41.41,0,0,0-.06.47,4.74,4.74,0,0,0-.47,2.89c0,.32-.08.65-.11,1a3.4,3.4,0,0,0-.43,2.39c0,.35-.08.69-.11,1a5.85,5.85,0,0,0-.62,2.32l.06-.07c-1.25.19-2-.13-1.69-1.6A5.07,5.07,0,0,0,259.29,148.11Z"/><path class="cls-9" d="M385.25,137.51l1.32,0c.07.35.14.71.22,1.06s-.07.58-.1.87l-1.23.76-.21-.06-.19.12a1,1,0,0,0-1.15.54h0a.61.61,0,0,0-.55.57h0a1.07,1.07,0,0,0-.58,1.12v0a1.71,1.71,0,0,0-.49,1.71c0,.3-.08.61-.11.92a3.53,3.53,0,0,0-.43,2.44l-.12,1a6.25,6.25,0,0,0-.61,2.36l.07-.08c-1.25.2-2-.09-1.71-1.59a5.77,5.77,0,0,0,0-1.1c0-.33.07-.66.11-1a4.74,4.74,0,0,0,.47-2.94.46.46,0,0,0,.06-.5,4.57,4.57,0,0,0,.48-2.86c0-.33.07-.66.11-1l.8-2.34h1.19c.33.5.25,2,1.36.54h0A1.81,1.81,0,0,0,385.25,137.51Z"/><path class="cls-10" d="M221.9,137.49h.86l.66.52,0,1a4.61,4.61,0,0,0-.48,2.87c0,.33-.07.65-.11,1a3.44,3.44,0,0,0-.43,2.39c0,.35-.07.7-.11,1.05a4.71,4.71,0,0,0-.47,2.88l-.12.94c-.54.81-1.35.73-2.16.67l.06.05c0-.36-.11-.72-.16-1.07s.07-.7.11-1a4.74,4.74,0,0,0,.48-2.89c0-.32.07-.64.11-1a3.39,3.39,0,0,0,.42-2.39c0-.35.08-.7.11-1a4.78,4.78,0,0,0,.48-2.9.52.52,0,0,0,.08-.47Z"/><path class="cls-11" d="M276.08,148.68a.62.62,0,0,0,.13-.47l.57-.65,0,0,1.65,0,0-.05.55.78c0,.46,0,.91,0,1.37-.21.38-.42.77-.64,1.15l.07-.06-1.63.1h0c-.18-.19-.36-.39-.55-.58l0,0C276.17,149.78,276.13,149.23,276.08,148.68Z"/><path class="cls-12" d="M326.68,147.49a.22.22,0,0,0,.3.1,4.11,4.11,0,0,1,.3,2.76l0,0-.55.52,0,0c-1.83-.43-1.85-.45-1.69-2.82v0l.56-.54h0Z"/><path class="cls-13" d="M224.49,133.12c0,.29,0,.57,0,.86l-.62,1.18.06-.06-1.64.11,0,0-.53-.58h0l0-1.67h0l.45-.57.1-.07.81-.41h.08l.81.47,0,0Z"/><path class="cls-14" d="M162.8,3.33l-.61-.59a3,3,0,0,1,.07-.51h0l.66-.55L164,1l.55.11,0,.59,0,.05c-.13.16-.27.31-.4.46a.69.69,0,0,0-.22.42l-.55.72,0,0Z"/><path class="cls-15" d="M82,68.45l.49.56a1.3,1.3,0,0,1-.05.44,3.68,3.68,0,0,1-.75-.13c-.3-.13-.73-.33-.62-.66S81.67,68.39,82,68.45Z"/><path class="cls-16" d="M191.5,112.81c-.18-.39-.11-.92-.61-1.15.12-.43.33-1,.81-.87s.31.71.24,1.09A4.13,4.13,0,0,1,191.5,112.81Z"/><path class="cls-17" d="M344.87,142.74a3.67,3.67,0,0,1,1.68-2.58,2.76,2.76,0,0,1,4.19,1.18c.46,1.16.13,1.75-1.12,1.81s-2.41,0-3.62,0A1.28,1.28,0,0,1,344.87,142.74Z"/><path class="cls-17" d="M273.3,142.91a21.32,21.32,0,0,1-5.37.22c-.79,0-.85-.56-.65-1.17a3.45,3.45,0,0,1,3.17-2.3C271.92,139.69,272.5,140.3,273.3,142.91Z"/><path class="cls-17" d="M389.62,143c.47-2.23,1.27-3.15,2.81-3.3a2.65,2.65,0,0,1,2.89,1.7c.56,1.21.3,1.75-1,1.76A18.75,18.75,0,0,1,389.62,143Z"/><path class="cls-18" d="M164.47,1.11V.52a.68.68,0,0,1,.57.57Z"/></g></g></svg>